<?xml version="1.0" encoding="UTF-8" standalone="no"?>
<!-- Created with Inkscape (http://www.inkscape.org/) -->

<svg
   xmlns:dc="http://purl.org/dc/elements/1.1/"
   xmlns:cc="http://creativecommons.org/ns#"
   xmlns:rdf="http://www.w3.org/1999/02/22-rdf-syntax-ns#"
   xmlns:svg="http://www.w3.org/2000/svg"
   xmlns="http://www.w3.org/2000/svg"
   xmlns:sodipodi="http://sodipodi.sourceforge.net/DTD/sodipodi-0.dtd"
   xmlns:inkscape="http://www.inkscape.org/namespaces/inkscape"
   version="1.1"
   width="675"
   height="975"
   id="svg2"
   xml:space="preserve"
   inkscape:version="0.48.4 r9939"
   sodipodi:docname="00-bw-B-min.svg"><sodipodi:namedview
     pagecolor="#ffffff"
     bordercolor="#666666"
     borderopacity="1"
     objecttolerance="10"
     gridtolerance="10"
     guidetolerance="10"
     inkscape:pageopacity="0"
     inkscape:pageshadow="2"
     inkscape:window-width="1680"
     inkscape:window-height="996"
     id="namedview4890"
     showgrid="false"
     inkscape:zoom="0.96820513"
     inkscape:cx="394.54154"
     inkscape:cy="430.81673"
     inkscape:window-x="-4"
     inkscape:window-y="-4"
     inkscape:window-maximized="1"
     inkscape:current-layer="g12" /><metadata
     id="metadata8"><rdf:RDF><cc:Work
         rdf:about=""><dc:format>image/svg+xml</dc:format><dc:type
           rdf:resource="http://purl.org/dc/dcmitype/StillImage" /><dc:title /></cc:Work></rdf:RDF></metadata><defs
     id="defs6"><clipPath
   id="clipPath16"><path
     d="M 0,0 540,0 540,780 0,780 0,0 z"
     inkscape:connector-curvature="0"
     id="path18" /></clipPath>




</defs><g
     transform="matrix(1.25,0,0,-1.25,0,975)"
     id="g10"><g
       id="g12"><text
   transform="scale(1,-1)"
   id="text26"
   x="141.3"
   y="-224.2"><tspan
     x="141.3"
     y="-224.2"
     id="tspan28"
     style="font-size:131.30000305px;font-variant:normal;font-weight:normal;writing-mode:lr-tb;fill:#000000;fill-opacity:1;fill-rule:nonzero;stroke:none;font-family:OpenSymbol;-inkscape-font-specification:OpenSymbol">#</tspan></text>

<path
   style="fill:#e95527;fill-opacity:1;fill-rule:evenodd;stroke:none"
   d="m 230.5,151.1 c -9.63694,12.66273 -6.53679,30.7675 2.1,43.1 11.61794,17.19895 33.42913,28.66948 54.3,24.3 12.57934,-2.59407 22.94539,-13.66322 23.65715,-26.64304 1.52844,-19.41218 -11.77618,-37.14817 -28.15082,-46.22477 -14.03951,-7.86056 -33.14177,-10.21261 -46.60633,0.0678 -1.9748,1.56227 -3.86007,3.32452 -5.3,5.4 z"
   id="path100"
   inkscape:connector-curvature="0" /><path
   style="fill:#009900;fill-opacity:1;fill-rule:evenodd;stroke:none"
   d="m 231,247.1 c -9.54778,12.40628 -6.63241,30.30243 1.68323,42.57205 11.69248,17.62564 34.01326,29.50985 55.26487,24.66352 12.63169,-2.81403 22.52033,-13.9368 23.11466,-26.94453 C 312.34156,268.5067 299.44612,251.08902 283.8,242.2 c -13.95668,-8.18455 -33.15406,-10.91351 -46.9229,-0.92321 -2.19252,1.5905 -4.5645,3.73979 -5.8771,5.82321 z"
   id="path114"
   inkscape:connector-curvature="0" /><g
   id="g120"><path
     style="fill:none;stroke:#009900;stroke-width:2.00929999;stroke-linecap:butt;stroke-linejoin:round;stroke-miterlimit:10;stroke-opacity:1;stroke-dasharray:none"
     id="path122"
     inkscape:connector-curvature="0"
     d="m 207.5,277.6 0,0 z" /></g><g
   id="g124"><path
     style="fill:none;stroke:#009900;stroke-width:2.00929999;stroke-linecap:butt;stroke-linejoin:round;stroke-miterlimit:10;stroke-opacity:1;stroke-dasharray:none"
     id="path126"
     inkscape:connector-curvature="0"
     d="m 325.6,275.9 0,0 z" /></g><path
   style="fill:#cc0066;fill-opacity:1;fill-rule:evenodd;stroke:none"
   d="m 230.3,343 c -9.73365,12.84072 -6.48972,31.20853 2.42313,43.57227 11.8579,17.23508 34.13678,28.62752 55.08716,23.55016 11.94919,-2.85545 21.44695,-13.37939 22.54665,-25.69182 1.77263,-18.98846 -10.91601,-36.75369 -26.51659,-45.9342 -14.07135,-8.46509 -33.54695,-11.41216 -47.58344,-1.34804 -2.27236,1.59531 -4.34739,3.58862 -5.95691,5.85163 z"
   id="path128"
   inkscape:connector-curvature="0" /><path
   style="fill:#000000;fill-opacity:1;fill-rule:evenodd;stroke:none"
   id="path142"
   inkscape:connector-curvature="0"
   d="m 310.9,584.4 5.3,0 0,-403.7 -5.3,0 0,403.7 z" /><g
   id="g148"><path
     style="fill:none;stroke:#000000;stroke-width:2.00929999;stroke-linecap:butt;stroke-linejoin:round;stroke-miterlimit:10;stroke-opacity:1;stroke-dasharray:none"
     id="path150"
     inkscape:connector-curvature="0"
     d="m 310.9,584.4 0,0 z" /></g><g
   id="g152"><path
     style="fill:none;stroke:#000000;stroke-width:2.00929999;stroke-linecap:butt;stroke-linejoin:round;stroke-miterlimit:10;stroke-opacity:1;stroke-dasharray:none"
     id="path154"
     inkscape:connector-curvature="0"
     d="m 316.2,180.7 0,0 z" /></g></g></g></svg>