<?xml version="1.0" encoding="UTF-8" standalone="no"?>
<!-- Created with Inkscape (http://www.inkscape.org/) -->

<svg
   xmlns:dc="http://purl.org/dc/elements/1.1/"
   xmlns:cc="http://creativecommons.org/ns#"
   xmlns:rdf="http://www.w3.org/1999/02/22-rdf-syntax-ns#"
   xmlns:svg="http://www.w3.org/2000/svg"
   xmlns="http://www.w3.org/2000/svg"
   xmlns:sodipodi="http://sodipodi.sourceforge.net/DTD/sodipodi-0.dtd"
   xmlns:inkscape="http://www.inkscape.org/namespaces/inkscape"
   version="1.1"
   width="675"
   height="975"
   id="svg2"
   xml:space="preserve"
   inkscape:version="0.48.4 r9939"
   sodipodi:docname="bw-A-maj.svg"><sodipodi:namedview
     pagecolor="#ffffff"
     bordercolor="#666666"
     borderopacity="1"
     objecttolerance="10"
     gridtolerance="10"
     guidetolerance="10"
     inkscape:pageopacity="0"
     inkscape:pageshadow="2"
     inkscape:window-width="1680"
     inkscape:window-height="996"
     id="namedview4973"
     showgrid="false"
     inkscape:zoom="1.9364102"
     inkscape:cx="153.93871"
     inkscape:cy="531.59207"
     inkscape:window-x="-4"
     inkscape:window-y="-4"
     inkscape:window-maximized="1"
     inkscape:current-layer="g14" /><metadata
     id="metadata8"><rdf:RDF><cc:Work
         rdf:about=""><dc:format>image/svg+xml</dc:format><dc:type
           rdf:resource="http://purl.org/dc/dcmitype/StillImage" /></cc:Work></rdf:RDF></metadata><defs
     id="defs6"><clipPath
       id="clipPath16"><path
         d="M 0,0 540,0 540,780 0,780 0,0 z"
         inkscape:connector-curvature="0"
         id="path18" /></clipPath></defs><g
     transform="matrix(1.25,0,0,-1.25,0,975)"
     id="g10"><g
       id="g12"><g
         clip-path="url(#clipPath16)"
         id="g14"><g
           id="g30"
           transform="translate(-6.6101695,-16.525424)"><text
   transform="matrix(1,0,0,-1,118.8,427.6)"
   id="text32"><tspan
     x="0"
     y="0"
     id="tspan34"
     style="font-size:157.19999695px;font-variant:normal;font-weight:normal;writing-mode:lr-tb;fill:#000000;fill-opacity:1;fill-rule:nonzero;stroke:none;font-family:OpenSymbol;-inkscape-font-specification:OpenSymbol">#</tspan></text>





</g><g
           id="g66" /><path
           style="fill:#c00000;fill-opacity:1;fill-rule:evenodd;stroke:none"
           d="m 233.9,438.9 c -9.66651,12.87932 -6.44527,31.17921 2.4244,43.57412 12.11946,17.62344 35.22251,29.2027 56.52585,23.1608 13.1539,-3.5413 22.30998,-16.94624 21.26777,-30.45641 -1.11897,-21.08945 -17.77407,-38.83302 -37.11289,-45.62688 C 262.50281,424.3304 243.79361,425.74176 233.9,438.9 z"
           id="path106"
           inkscape:connector-curvature="0" /><path
           style="fill:#ffcc00;fill-opacity:1;fill-rule:evenodd;stroke:none"
           d="m 233.9,537 c -9.54899,12.66663 -6.51294,30.68478 2.05234,43.02667 11.97477,17.76787 34.94244,29.55634 56.34766,23.87333 12.45189,-3.32253 21.79511,-15.11294 21.85465,-28.04766 0.36058,-18.77008 -12.60372,-35.69556 -28.35222,-44.32238 -14.20215,-7.93262 -33.56367,-10.10581 -47.05102,0.42891 -1.84702,1.42529 -3.41514,3.21199 -4.85141,5.04113 z"
           id="path120"
           inkscape:connector-curvature="0" /><path
           style="fill:#3a2593;fill-opacity:1;fill-rule:evenodd;stroke:none"
           d="m 233.9,343.7 c -9.7395,13.00695 -6.31539,31.54034 2.75888,43.94126 11.81219,16.87058 33.63503,28.01582 54.29137,23.29366 13.0114,-2.87164 22.88831,-14.56182 23.17844,-27.90868 0.65373,-20.34717 -14.16016,-38.50111 -32.05553,-46.6553 C 266.65148,328.85882 245.09721,328.94481 233.9,343.7 z"
           id="path134"
           inkscape:connector-curvature="0" /><path
           d="m 222.54269,560.9 5.3,0 0,-403.7 -5.3,0 0,403.7 z"
           inkscape:connector-curvature="0"
           id="path148"
           style="fill:#000000;fill-opacity:1;fill-rule:evenodd;stroke:none" /></g></g></g></svg>