<?xml version="1.0" encoding="UTF-8" standalone="no"?>
<!-- Created with Inkscape (http://www.inkscape.org/) -->

<svg
   xmlns:dc="http://purl.org/dc/elements/1.1/"
   xmlns:cc="http://creativecommons.org/ns#"
   xmlns:rdf="http://www.w3.org/1999/02/22-rdf-syntax-ns#"
   xmlns:svg="http://www.w3.org/2000/svg"
   xmlns="http://www.w3.org/2000/svg"
   xmlns:sodipodi="http://sodipodi.sourceforge.net/DTD/sodipodi-0.dtd"
   xmlns:inkscape="http://www.inkscape.org/namespaces/inkscape"
   version="1.1"
   width="675"
   height="975"
   id="svg2"
   xml:space="preserve"
   inkscape:version="0.48.4 r9939"
   sodipodi:docname="bw-A-1lijn.svg"><sodipodi:namedview
     pagecolor="#ffffff"
     bordercolor="#666666"
     borderopacity="1"
     objecttolerance="10"
     gridtolerance="10"
     guidetolerance="10"
     inkscape:pageopacity="0"
     inkscape:pageshadow="2"
     inkscape:window-width="1680"
     inkscape:window-height="996"
     id="namedview3045"
     showgrid="false"
     inkscape:zoom="0.96820513"
     inkscape:cx="524.49462"
     inkscape:cy="716.22028"
     inkscape:window-x="-4"
     inkscape:window-y="-4"
     inkscape:window-maximized="1"
     inkscape:current-layer="g14" /><metadata
     id="metadata8"><rdf:RDF><cc:Work
         rdf:about=""><dc:format>image/svg+xml</dc:format><dc:type
           rdf:resource="http://purl.org/dc/dcmitype/StillImage" /><dc:title /></cc:Work></rdf:RDF></metadata><defs
     id="defs6"><clipPath
       id="clipPath16"><path
         d="M 0,0 540,0 540,780 0,780 0,0 z"
         inkscape:connector-curvature="0"
         id="path18" /></clipPath></defs><g
     transform="matrix(1.25,0,0,-1.25,0,975)"
     id="g10"><g
       id="g12"><g
         clip-path="url(#clipPath16)"
         id="g14"><path
           style="fill:#3a2593;fill-opacity:1;fill-rule:evenodd;stroke:none"
           d="m 220.8,409.5 c -5.87581,7.75393 -7.23003,18.22361 -4.88133,27.51842 2.17082,8.9123 7.1192,16.9559 13.38201,23.58226 7.70433,7.715 17.40264,13.52305 28.05475,16.03552 9.44897,2.19427 19.835,1.68939 28.5001,-2.96397 7.6557,-4.13616 13.23438,-11.89057 14.59309,-20.50319 1.0498,-5.00604 0.59096,-10.25886 -0.52196,-15.21707 -1.86655,-7.48382 -5.65043,-14.3788 -10.60416,-20.26348 -6.28673,-7.27174 -14.25001,-13.18812 -23.23157,-16.69179 -9.31642,-3.74147 -19.88288,-4.91654 -29.617,-2.12888 -6.09799,1.87742 -11.86559,5.43021 -15.67393,10.63218 z"
           id="path38"
           inkscape:connector-curvature="0" /><path
           d="m 295.8,776.3 5.6,0 0,-334.7 -5.6,0 0,334.7 z"
           inkscape:connector-curvature="0"
           id="path52"
           style="fill:#3a2593;fill-opacity:1;fill-rule:evenodd;stroke:none" /><g
           id="g58"><path
             d="m 295.8,776.3 0,0 z"
             inkscape:connector-curvature="0"
             id="path60"
             style="fill:none;stroke:#3a2593;stroke-width:2.00929999;stroke-linecap:butt;stroke-linejoin:round;stroke-miterlimit:10;stroke-opacity:1;stroke-dasharray:none" /></g><g
           id="g62"><path
             d="m 301.4,441.6 0,0 z"
             inkscape:connector-curvature="0"
             id="path64"
             style="fill:none;stroke:#3a2593;stroke-width:2.00929999;stroke-linecap:butt;stroke-linejoin:round;stroke-miterlimit:10;stroke-opacity:1;stroke-dasharray:none" /></g></g></g></g></svg>