<?xml version="1.0" encoding="UTF-8" standalone="no"?>
<!-- Created with Inkscape (http://www.inkscape.org/) -->

<svg
   xmlns:dc="http://purl.org/dc/elements/1.1/"
   xmlns:cc="http://creativecommons.org/ns#"
   xmlns:rdf="http://www.w3.org/1999/02/22-rdf-syntax-ns#"
   xmlns:svg="http://www.w3.org/2000/svg"
   xmlns="http://www.w3.org/2000/svg"
   xmlns:sodipodi="http://sodipodi.sourceforge.net/DTD/sodipodi-0.dtd"
   xmlns:inkscape="http://www.inkscape.org/namespaces/inkscape"
   version="1.1"
   width="675"
   height="975"
   id="svg2"
   xml:space="preserve"
   inkscape:version="0.48.4 r9939"
   sodipodi:docname="bw-A-min.svg"><sodipodi:namedview
     pagecolor="#ffffff"
     bordercolor="#666666"
     borderopacity="1"
     objecttolerance="10"
     gridtolerance="10"
     guidetolerance="10"
     inkscape:pageopacity="0"
     inkscape:pageshadow="2"
     inkscape:window-width="1680"
     inkscape:window-height="996"
     id="namedview77"
     showgrid="false"
     inkscape:zoom="0.6846244"
     inkscape:cx="81.418582"
     inkscape:cy="494.95974"
     inkscape:window-x="-4"
     inkscape:window-y="-4"
     inkscape:window-maximized="1"
     inkscape:current-layer="g14" /><metadata
     id="metadata8"><rdf:RDF><cc:Work
         rdf:about=""><dc:format>image/svg+xml</dc:format><dc:type
           rdf:resource="http://purl.org/dc/dcmitype/StillImage" /></cc:Work></rdf:RDF></metadata><defs
     id="defs6"><clipPath
       id="clipPath16"><path
         d="M 0,0 540,0 540,780 0,780 0,0 z"
         inkscape:connector-curvature="0"
         id="path18" /></clipPath></defs><g
     transform="matrix(1.25,0,0,-1.25,0,975)"
     id="g10"><g
       id="g12"><g
         clip-path="url(#clipPath16)"
         id="g14"><path
           style="fill:#ffcc00;fill-opacity:1;fill-rule:evenodd;stroke:none"
           d="m 233.9,535.9 c -9.63686,12.89127 -6.45993,31.18164 2.41313,43.58175 11.40336,16.52486 32.27321,27.76218 52.55028,24.10557 13.22383,-1.91863 24.33597,-13.37828 25.15093,-26.83076 C 315.52599,556.90446 301.66943,538.77634 284.7,529.9 c -13.88199,-7.36256 -32.38676,-9.28279 -45.5,0.7 -2.00643,1.42387 -3.88678,3.68566 -5.3,5.3 z"
           id="path94"
           inkscape:connector-curvature="0" /><path
           style="fill:#cc0000;fill-opacity:1;fill-rule:evenodd;stroke:none"
           d="m 233.4,438.7 c -9.82553,13.25424 -6.24349,32.01688 3.08848,44.51212 12.15604,16.96181 34.60278,28.04022 55.41152,22.38788 12.56948,-3.35179 21.65014,-15.04875 21.75739,-28.04771 0.29943,-20.54631 -14.9109,-38.77677 -33.2266,-46.56557 -14.61701,-6.89163 -34.54893,-6.5355 -45.83079,6.31328 -0.31403,0.28993 -1.01347,1.44328 -1.2,1.4 z"
           id="path108"
           inkscape:connector-curvature="0" /><path
           d="m 221.75254,558.8 5.3,0 0,-403.7 -5.3,0 0,403.7 z"
           inkscape:connector-curvature="0"
           id="path122"
           style="fill:#000000;fill-opacity:1;fill-rule:evenodd;stroke:none" /><path
           style="fill:#3a2593;fill-opacity:1;fill-rule:evenodd;stroke:none"
           d="m 232.8,342.8 c -9.62112,12.89261 -6.50066,31.19191 2.41313,43.58175 C 246.50555,402.7678 267.079,413.92421 287.2,410.6 c 12.9411,-1.71753 24.09324,-12.39862 25.5557,-25.50464 2.31494,-19.64785 -10.95492,-38.13947 -27.55457,-47.38043 -14.03382,-8.10674 -33.22653,-10.54349 -46.8801,-0.3807 -2.0976,1.45106 -4.05543,3.78102 -5.52103,5.46577 z"
           id="path136"
           inkscape:connector-curvature="0" /></g></g></g></svg>