<?xml version="1.0" encoding="UTF-8" standalone="no"?>
<!-- Created with Inkscape (http://www.inkscape.org/) -->

<svg
   xmlns:dc="http://purl.org/dc/elements/1.1/"
   xmlns:cc="http://creativecommons.org/ns#"
   xmlns:rdf="http://www.w3.org/1999/02/22-rdf-syntax-ns#"
   xmlns:svg="http://www.w3.org/2000/svg"
   xmlns="http://www.w3.org/2000/svg"
   xmlns:sodipodi="http://sodipodi.sourceforge.net/DTD/sodipodi-0.dtd"
   xmlns:inkscape="http://www.inkscape.org/namespaces/inkscape"
   version="1.1"
   width="675"
   height="975"
   id="svg2"
   xml:space="preserve"
   inkscape:version="0.48.4 r9939"
   sodipodi:docname="bw-A-2x8.svg"><sodipodi:namedview
     pagecolor="#ffffff"
     bordercolor="#666666"
     borderopacity="1"
     objecttolerance="10"
     gridtolerance="10"
     guidetolerance="10"
     inkscape:pageopacity="0"
     inkscape:pageshadow="2"
     inkscape:window-width="1680"
     inkscape:window-height="996"
     id="namedview3989"
     showgrid="false"
     inkscape:zoom="0.48410256"
     inkscape:cx="241.02323"
     inkscape:cy="755.84898"
     inkscape:window-x="-4"
     inkscape:window-y="-4"
     inkscape:window-maximized="1"
     inkscape:current-layer="g14" /><metadata
     id="metadata8"><rdf:RDF><cc:Work
         rdf:about=""><dc:format>image/svg+xml</dc:format><dc:type
           rdf:resource="http://purl.org/dc/dcmitype/StillImage" /></cc:Work></rdf:RDF></metadata><defs
     id="defs6"><clipPath
       id="clipPath16"><path
         d="M 0,0 540,0 540,780 0,780 0,0 z"
         inkscape:connector-curvature="0"
         id="path18" /></clipPath></defs><g
     transform="matrix(1.25,0,0,-1.25,0,975)"
     id="g10"><g
       id="g12"><g
         clip-path="url(#clipPath16)"
         id="g14"><path
           style="fill:#3a2593;fill-opacity:1;fill-rule:evenodd;stroke:none"
           d="m 110.88686,342.6 c -10.13128,13.38017 -6.1724,32.46359 3.4,45 12.36448,16.72746 34.9052,27.70272 55.60107,21.67855 12.97912,-3.6048 22.09891,-16.65085 21.19893,-30.05968 -0.78894,-19.21205 -14.83614,-35.89071 -31.6,-43.71887 -14.56158,-7.16652 -34.61695,-7.78265 -46.53587,4.6694 -0.75443,0.75448 -1.40086,1.59774 -2.06413,2.4306 z"
           id="path94"
           inkscape:connector-curvature="0" /><path
           style="fill:#3a2593;fill-opacity:1;fill-rule:evenodd;stroke:none"
           d="m 334.4,341.6 c -10.29183,13.5708 -6.06401,32.94771 3.79692,45.50277 12.48947,16.61186 35.21826,27.4335 55.80522,20.95434 12.74679,-3.73572 21.36804,-16.67475 20.59786,-29.83824 -0.89401,-19.6807 -15.42382,-36.56539 -32.7663,-44.24901 C 366.56638,326.80054 345.10703,327.21917 334.4,341.6 z"
           id="path108"
           inkscape:connector-curvature="0" /><path
           d="m 185.6,711.5 228.3,0 0,-45.4 -228.3,0 0,45.4 z"
           inkscape:connector-curvature="0"
           id="path122"
           style="fill:#3a2593;fill-opacity:1;fill-rule:evenodd;stroke:none" /><g
           id="g128"><path
             d="m 185.6,711.5 0,0 z"
             inkscape:connector-curvature="0"
             id="path130"
             style="fill:none;stroke:#3a2593;stroke-width:2.00929999;stroke-linecap:butt;stroke-linejoin:round;stroke-miterlimit:10;stroke-opacity:1;stroke-dasharray:none" /></g><g
           id="g132"><path
             d="m 413.9,666.1 0,0 z"
             inkscape:connector-curvature="0"
             id="path134"
             style="fill:none;stroke:#3a2593;stroke-width:2.00929999;stroke-linecap:butt;stroke-linejoin:round;stroke-miterlimit:10;stroke-opacity:1;stroke-dasharray:none" /></g><path
           d="m 185.47373,708 5.5,0 0,-334.6 -5.5,0 0,334.6 z"
           inkscape:connector-curvature="0"
           id="path136"
           style="fill:#3a2593;fill-opacity:1;fill-rule:evenodd;stroke:none" /><g
           id="g142"><path
             d="m 186.3,708 0,0 z"
             inkscape:connector-curvature="0"
             id="path144"
             style="fill:none;stroke:#3a2593;stroke-width:2.00929999;stroke-linecap:butt;stroke-linejoin:round;stroke-miterlimit:10;stroke-opacity:1;stroke-dasharray:none" /></g><g
           id="g146"><path
             d="m 191.8,373.4 0,0 z"
             inkscape:connector-curvature="0"
             id="path148"
             style="fill:none;stroke:#3a2593;stroke-width:2.00929999;stroke-linecap:butt;stroke-linejoin:round;stroke-miterlimit:10;stroke-opacity:1;stroke-dasharray:none" /></g><path
           d="m 410.2,711.2 5.6,0 0,-334.6 -5.6,0 0,334.6 z"
           inkscape:connector-curvature="0"
           id="path150"
           style="fill:#3a2593;fill-opacity:1;fill-rule:evenodd;stroke:none" /><g
           id="g156"><path
             d="m 410.2,711.2 0,0 z"
             inkscape:connector-curvature="0"
             id="path158"
             style="fill:none;stroke:#3a2593;stroke-width:2.00929999;stroke-linecap:butt;stroke-linejoin:round;stroke-miterlimit:10;stroke-opacity:1;stroke-dasharray:none" /></g><g
           id="g160"><path
             d="m 415.8,376.6 0,0 z"
             inkscape:connector-curvature="0"
             id="path162"
             style="fill:none;stroke:#3a2593;stroke-width:2.00929999;stroke-linecap:butt;stroke-linejoin:round;stroke-miterlimit:10;stroke-opacity:1;stroke-dasharray:none" /></g></g></g></g></svg>