<?xml version="1.0" encoding="UTF-8" standalone="no"?>
<!-- Created with Inkscape (http://www.inkscape.org/) -->

<svg
   xmlns:dc="http://purl.org/dc/elements/1.1/"
   xmlns:cc="http://creativecommons.org/ns#"
   xmlns:rdf="http://www.w3.org/1999/02/22-rdf-syntax-ns#"
   xmlns:svg="http://www.w3.org/2000/svg"
   xmlns="http://www.w3.org/2000/svg"
   xmlns:sodipodi="http://sodipodi.sourceforge.net/DTD/sodipodi-0.dtd"
   xmlns:inkscape="http://www.inkscape.org/namespaces/inkscape"
   version="1.1"
   width="675"
   height="975"
   id="svg2"
   xml:space="preserve"
   inkscape:version="0.48.4 r9939"
   sodipodi:docname="bw-Bes-1x8.svg"><sodipodi:namedview
     pagecolor="#ffffff"
     bordercolor="#666666"
     borderopacity="1"
     objecttolerance="10"
     gridtolerance="10"
     guidetolerance="10"
     inkscape:pageopacity="0"
     inkscape:pageshadow="2"
     inkscape:window-width="1680"
     inkscape:window-height="996"
     id="namedview64"
     showgrid="false"
     inkscape:zoom="0.24205128"
     inkscape:cx="243.04599"
     inkscape:cy="1174.4142"
     inkscape:window-x="-4"
     inkscape:window-y="-4"
     inkscape:window-maximized="1"
     inkscape:current-layer="g12" /><metadata
     id="metadata8"><rdf:RDF><cc:Work
         rdf:about=""><dc:format>image/svg+xml</dc:format><dc:type
           rdf:resource="http://purl.org/dc/dcmitype/StillImage" /><dc:title /></cc:Work></rdf:RDF></metadata><defs
     id="defs6"><clipPath
       id="clipPath16"><path
         d="M 0,0 540,0 540,780 0,780 0,0 z"
         inkscape:connector-curvature="0"
         id="path18" /></clipPath></defs><g
     transform="matrix(1.25,0,0,-1.25,0,975)"
     id="g10"><g
       id="g12"><path
         style="fill:#7030a0;fill-opacity:1;fill-rule:evenodd;stroke:none"
         id="path100"
         inkscape:connector-curvature="0"
         d="m 237,390.2 0,0 -1.1,1.6 -1,1.6 -0.9,1.7 -0.7,1.7 -0.7,1.9 -0.6,1.8 -0.4,1.9 -0.3,2 -0.2,2 -0.1,2.1 0.1,2 0.1,2.1 0.3,2.1 0.4,2.1 0.5,2.1 0.6,2.1 0.8,2.1 0.8,2.1 1,2.1 1,2 1.2,2 1.3,2 1.3,1.9 1.5,1.9 1.5,1.9 1.6,1.7 1.7,1.8 1.8,1.6 1.9,1.6 1.9,1.5 0,0 2,1.5 2,1.3 2.1,1.3 2.1,1.1 2.1,1.1 2.2,1 2.3,0.9 2.2,0.7 2.2,0.7 2.3,0.6 2.2,0.5 2.3,0.3 2.2,0.2 2.3,0.2 2.2,0 2.1,-0.1 2.1,-0.2 2.1,-0.3 2.1,-0.4 2,-0.5 1.9,-0.6 1.9,-0.8 1.8,-0.8 1.7,-0.9 1.7,-1.1 1.5,-1.1 1.5,-1.2 1.4,-1.3 1.3,-1.4 1.2,-1.5 0,0 1.1,-1.6 1,-1.6 0.8,-1.7 0.8,-1.8 0.7,-1.8 0.5,-1.8 0.4,-2 0.3,-1.9 0.2,-2 0.1,-2 0,-2.1 -0.2,-2.1 -0.3,-2.1 -0.4,-2.1 -0.5,-2.1 -0.6,-2.1 -0.7,-2.1 -0.8,-2.1 -1,-2.1 -1.1,-2 -1.1,-2 -1.3,-2 -1.4,-2 -1.4,-1.8 -1.6,-1.9 -1.6,-1.8 -1.7,-1.7 -1.8,-1.7 -1.8,-1.5 -1.9,-1.5 0,0 -2,-1.4 -2.1,-1.4 -2,-1.2 -2.2,-1.2 -2.1,-1.1 -2.2,-1 -2.2,-0.8 -2.2,-0.8 -2.3,-0.7 -2.2,-0.6 -2.3,-0.4 -2.3,-0.4 -2.2,-0.2 -2.2,-0.2 -2.2,0 -2.2,0.1 -2.1,0.2 -2.1,0.3 -2.1,0.4 -1.9,0.5 -2,0.6 -1.8,0.8 -1.9,0.8 -1.7,1 -1.6,1 -1.6,1.1 -1.5,1.2 -1.4,1.3 -1.3,1.4 -1.2,1.5 0.1,0 z" /><path
         style="fill:#7030a0;fill-opacity:1;fill-rule:evenodd;stroke:none"
         id="path114"
         inkscape:connector-curvature="0"
         d="m 230.5,413.3 5.5,0 0,-334.6 -5.5,0 0,334.6 z" /><path
         style="fill:#000000;stroke:#000000;stroke-width:0.80000001px;stroke-linecap:butt;stroke-linejoin:miter;stroke-opacity:1;display:inline"
         id="path3018"
         d="m 75.933051,570.59195 0,-209.15 c 40.485169,7.13533 85.632359,22.59076 86.099999,73.225 -0.33146,11.8638 -6.75082,33.60114 -31.2,33.9 -10.62377,0.18558 -20.82061,0.4133 -47.574999,-33.225 l 0,135.25 z m 44.749999,-117.625 c 18.28548,-0.27865 20.7923,-11.79042 21.69449,-22.03602 0.81544,-39.37643 -29.33991,-51.53313 -58.950001,-60.15 l -0.169488,50.33602 c 10.484792,15.64498 24.992379,32.19738 37.424999,31.85 z"
         inkscape:connector-curvature="0" /><g
         id="g138"
         transform="matrix(1,0,0,-1,-71.207627,520.38898)"><path
           style="fill:#7030a0;fill-opacity:1;stroke:#7030a0;stroke-width:2.00929999;stroke-linecap:butt;stroke-linejoin:round;stroke-miterlimit:10;stroke-opacity:1;stroke-dasharray:none"
           id="path140"
           inkscape:connector-curvature="0"
           d="m 400.46356,365.28814 c -4.2,60.6 -93,38.1 -97.3,98.8 l -1,-49.7 c 4.3,-60.7 93.1,-38.1 97.3,-98.8 l 1,49.7 z" /></g></g></g></svg>