<?xml version="1.0" encoding="UTF-8" standalone="no"?>
<!-- Created with Inkscape (http://www.inkscape.org/) -->

<svg
   xmlns:dc="http://purl.org/dc/elements/1.1/"
   xmlns:cc="http://creativecommons.org/ns#"
   xmlns:rdf="http://www.w3.org/1999/02/22-rdf-syntax-ns#"
   xmlns:svg="http://www.w3.org/2000/svg"
   xmlns="http://www.w3.org/2000/svg"
   xmlns:sodipodi="http://sodipodi.sourceforge.net/DTD/sodipodi-0.dtd"
   xmlns:inkscape="http://www.inkscape.org/namespaces/inkscape"
   version="1.1"
   width="675"
   height="975"
   id="svg2"
   xml:space="preserve"
   inkscape:version="0.48.4 r9939"
   sodipodi:docname="bw-Bes-min.svg"><sodipodi:namedview
     pagecolor="#ffffff"
     bordercolor="#666666"
     borderopacity="1"
     objecttolerance="10"
     gridtolerance="10"
     guidetolerance="10"
     inkscape:pageopacity="0"
     inkscape:pageshadow="2"
     inkscape:window-width="1680"
     inkscape:window-height="996"
     id="namedview3287"
     showgrid="false"
     inkscape:zoom="0.96820513"
     inkscape:cx="635.12685"
     inkscape:cy="537.04267"
     inkscape:window-x="-4"
     inkscape:window-y="-4"
     inkscape:window-maximized="1"
     inkscape:current-layer="g14" /><metadata
     id="metadata8"><rdf:RDF><cc:Work
         rdf:about=""><dc:format>image/svg+xml</dc:format><dc:type
           rdf:resource="http://purl.org/dc/dcmitype/StillImage" /></cc:Work></rdf:RDF></metadata><defs
     id="defs6"><clipPath
       id="clipPath16"><path
         d="M 0,0 540,0 540,780 0,780 0,0 z"
         inkscape:connector-curvature="0"
         id="path18" /></clipPath></defs><g
     transform="matrix(1.25,0,0,-1.25,0,975)"
     id="g10"><g
       id="g12"><g
         clip-path="url(#clipPath16)"
         id="g14"><path
           style="fill:#7030a0;fill-opacity:1;fill-rule:evenodd;stroke:none"
           d="m 234,390.3 c -9.71037,12.8632 -6.53864,31.20903 2.40855,43.57469 11.68215,17.15232 33.72699,28.48421 54.53372,23.76263 12.87231,-2.77122 23.04069,-14.63597 23.186,-27.90277 0.703,-20.34767 -14.13057,-38.55383 -32.04368,-46.66883 C 266.73324,375.44127 245.04198,375.79178 233.9,390.4 l 0.1,-0.1 0,0 z"
           id="path100"
           inkscape:connector-curvature="0" /><path
           style="fill:#00cc00;fill-opacity:1;fill-rule:evenodd;stroke:none"
           d="m 233.9,579.3 c -9.7666,12.81806 -6.51925,31.22618 2.4197,43.56725 11.96039,17.5587 34.80424,28.96415 55.9803,23.33275 12.27473,-3.18213 21.49362,-14.77484 21.72827,-27.46545 0.72961,-20.42657 -14.16622,-38.49903 -32.04368,-46.76883 -15.32377,-7.40115 -36.81902,-7.26726 -48.04561,7.16055 L 233.8,579.3 l 0.1,0 0,0 z"
           id="path114"
           inkscape:connector-curvature="0" /><path
           d="m 221.2,597.4 5.3,0 0,-403.7 -5.3,0 0,403.7 z"
           inkscape:connector-curvature="0"
           id="path128"
           style="fill:#000000;fill-opacity:1;fill-rule:evenodd;stroke:none" /><path
           style="fill:#fd8c0f;fill-opacity:1;fill-rule:evenodd;stroke:none"
           d="m 233.9,486.6 c -9.85983,13.00727 -6.4412,31.64188 2.71709,44.04937 11.78926,16.87101 33.58999,27.9429 54.22518,23.28795 12.55961,-2.74547 22.60293,-14.07748 23.12673,-27.02735 1.24029,-20.06637 -13.03035,-38.23854 -30.39131,-46.79679 -15.54431,-8.28701 -38.0174,-8.55752 -49.63871,6.41309 L 233.8,486.7 l 0.1,-0.1 0,0 z"
           id="path142"
           inkscape:connector-curvature="0" /><path
           inkscape:connector-curvature="0"
           d="m 29.661864,570.59195 0,-209.15 c 40.48517,7.13533 85.632356,22.59076 86.099996,73.225 -0.33146,11.8638 -6.75082,33.60114 -31.199996,33.9 -10.62377,0.18558 -20.82061,0.4133 -47.575,-33.225 l 0,135.25 z m 44.75,-117.625 c 18.28548,-0.27865 20.7923,-11.79042 21.69449,-22.03602 0.81544,-39.37643 -29.33991,-51.53313 -58.95,-60.15 l -0.16949,50.33602 c 10.48479,15.64498 24.99238,32.19738 37.425,31.85 z"
           id="path3018"
           style="fill:#000000;stroke:#000000;stroke-width:0.80000001px;stroke-linecap:butt;stroke-linejoin:miter;stroke-opacity:1;display:inline" /><path
           inkscape:connector-curvature="0"
           d="m 115.59407,669.7445 0,-209.15 c 40.48517,7.13533 85.63236,22.59076 86.1,73.225 -0.33147,11.8638 -6.75083,33.60114 -31.2,33.9 -10.62377,0.18558 -20.82061,0.4133 -47.575,-33.225 l 0,135.25 z m 44.75,-117.625 c 18.28548,-0.27865 20.7923,-11.79042 21.69449,-22.03602 0.81544,-39.37643 -29.33991,-51.53313 -58.95,-60.15 l -0.16949,50.33602 c 10.48479,15.64498 24.99238,32.19738 37.425,31.85 z"
           id="path3018-6"
           style="fill:#000000;stroke:#000000;stroke-width:0.80000001px;stroke-linecap:butt;stroke-linejoin:miter;stroke-opacity:1;display:inline" /></g></g></g></svg>