<?xml version="1.0" encoding="UTF-8" standalone="no"?>
<!-- Created with Inkscape (http://www.inkscape.org/) -->

<svg
   xmlns:dc="http://purl.org/dc/elements/1.1/"
   xmlns:cc="http://creativecommons.org/ns#"
   xmlns:rdf="http://www.w3.org/1999/02/22-rdf-syntax-ns#"
   xmlns:svg="http://www.w3.org/2000/svg"
   xmlns="http://www.w3.org/2000/svg"
   xmlns:sodipodi="http://sodipodi.sourceforge.net/DTD/sodipodi-0.dtd"
   xmlns:inkscape="http://www.inkscape.org/namespaces/inkscape"
   version="1.1"
   width="675"
   height="975"
   id="svg2"
   xml:space="preserve"
   inkscape:version="0.48.4 r9939"
   sodipodi:docname="bw-Bes-maj.svg"><sodipodi:namedview
     pagecolor="#ffffff"
     bordercolor="#666666"
     borderopacity="1"
     objecttolerance="10"
     gridtolerance="10"
     guidetolerance="10"
     inkscape:pageopacity="0"
     inkscape:pageshadow="2"
     inkscape:window-width="1680"
     inkscape:window-height="996"
     id="namedview3204"
     showgrid="false"
     inkscape:zoom="0.34231221"
     inkscape:cx="478.73922"
     inkscape:cy="541.49473"
     inkscape:window-x="-4"
     inkscape:window-y="-4"
     inkscape:window-maximized="1"
     inkscape:current-layer="svg2" /><metadata
     id="metadata8"><rdf:RDF><cc:Work
         rdf:about=""><dc:format>image/svg+xml</dc:format><dc:type
           rdf:resource="http://purl.org/dc/dcmitype/StillImage" /></cc:Work></rdf:RDF></metadata><defs
     id="defs6"><clipPath
       id="clipPath16"><path
         d="M 0,0 540,0 540,780 0,780 0,0 z"
         inkscape:connector-curvature="0"
         id="path18" /></clipPath></defs><path
     style="fill:#e95527;fill-opacity:1;fill-rule:evenodd;stroke:none"
     d="m 293.625,364.625 c -11.96143,-15.88062 -8.17372,-38.44156 2.625,-53.875 14.90658,-22.22767 43.67175,-36.85474 70.375,-29.75 16.491,4.15494 28.281,20.63311 27.3076,37.54031 -1.71639,41.15418 -51.83974,74.99014 -89.6826,55.45969 -4.2016,-2.33768 -7.68562,-5.59651 -10.625,-9.375 z"
     id="path100"
     inkscape:connector-curvature="0" /><path
     style="fill:#7030a0;fill-opacity:1;fill-rule:evenodd;stroke:none"
     d="m 292.5,487.125 c -12.13816,-16.07922 -8.17318,-39.01186 3.0111,-54.469 14.60292,-21.4402 42.15915,-35.60496 68.16748,-29.70243 16.09037,3.46419 28.80048,18.29555 28.9818,34.879 0.87832,25.43458 -17.66381,48.1921 -40.05533,58.33559 -19.18907,9.53029 -46.30278,9.0919 -60.23005,-9.16816 l 0.125,0.125 z"
     id="path114"
     inkscape:connector-curvature="0" /><path
     style="fill:#00cc00;fill-opacity:1;fill-rule:evenodd;stroke:none"
     d="m 292.375,250.875 c -12.20844,-16.02279 -8.14896,-39.03331 3.02505,-54.45969 14.95057,-21.94802 43.50514,-36.20452 69.97495,-29.16531 15.3437,3.97769 26.86739,18.46905 27.16038,34.33257 0.91159,25.53321 -17.70839,48.1236 -40.05533,58.46059 -19.1552,9.25158 -46.02528,9.08338 -60.05776,-8.95279 L 292.25,250.875 l 0.125,0 z"
     id="path128"
     inkscape:connector-curvature="0" /><path
     style="fill:#000000;fill-opacity:1;fill-rule:evenodd;stroke:none"
     id="path142"
     inkscape:connector-curvature="0"
     d="m 276.5,228.25 6.625,0 0,504.625 -6.625,0 0,-504.625 z" /><path
     style="fill:#000000;stroke:#000000;stroke-width:1px;stroke-linecap:butt;stroke-linejoin:miter;stroke-opacity:1;display:inline"
     id="path3018"
     d="m 115.5731,257.62871 0,261.4375 c 50.60646,-8.91916 107.04045,-28.23845 107.625,-91.53125 -0.41432,-14.82975 -8.43854,-42.00142 -39,-42.375 -13.27971,-0.23197 -26.02576,-0.51662 -59.46875,41.53125 l 0,-169.0625 z m 55.9375,147.03125 c 22.85685,0.34832 25.99036,14.73803 27.11811,27.54503 1.0193,49.22054 -36.6749,64.41641 -73.6875,75.1875 l -0.21186,-62.92003 c 13.10599,-19.55622 31.24046,-40.24672 46.78125,-39.8125 z"
     inkscape:connector-curvature="0" /></svg>