<?xml version="1.0" encoding="UTF-8" standalone="no"?>
<!-- Created with Inkscape (http://www.inkscape.org/) -->

<svg
   xmlns:dc="http://purl.org/dc/elements/1.1/"
   xmlns:cc="http://creativecommons.org/ns#"
   xmlns:rdf="http://www.w3.org/1999/02/22-rdf-syntax-ns#"
   xmlns:svg="http://www.w3.org/2000/svg"
   xmlns="http://www.w3.org/2000/svg"
   xmlns:sodipodi="http://sodipodi.sourceforge.net/DTD/sodipodi-0.dtd"
   xmlns:inkscape="http://www.inkscape.org/namespaces/inkscape"
   version="1.1"
   width="675"
   height="975"
   id="svg2"
   xml:space="preserve"
   inkscape:version="0.48.4 r9939"
   sodipodi:docname="bw-B-1lijn.svg"><sodipodi:namedview
     pagecolor="#ffffff"
     bordercolor="#666666"
     borderopacity="1"
     objecttolerance="10"
     gridtolerance="10"
     guidetolerance="10"
     inkscape:pageopacity="0"
     inkscape:pageshadow="2"
     inkscape:window-width="1680"
     inkscape:window-height="996"
     id="namedview3458"
     showgrid="false"
     inkscape:zoom="0.96820513"
     inkscape:cx="69.943062"
     inkscape:cy="328.23414"
     inkscape:window-x="-4"
     inkscape:window-y="-4"
     inkscape:window-maximized="1"
     inkscape:current-layer="g14" /><metadata
     id="metadata8"><rdf:RDF><cc:Work
         rdf:about=""><dc:format>image/svg+xml</dc:format><dc:type
           rdf:resource="http://purl.org/dc/dcmitype/StillImage" /></cc:Work></rdf:RDF></metadata><defs
     id="defs6"><clipPath
       id="clipPath16"><path
         d="M 0,0 540,0 540,780 0,780 0,0 z"
         inkscape:connector-curvature="0"
         id="path18" /></clipPath></defs><g
     transform="matrix(1.25,0,0,-1.25,0,975)"
     id="g10"><g
       id="g12"><g
         clip-path="url(#clipPath16)"
         id="g14"><path
           style="fill:#cc0066;fill-opacity:1;fill-rule:evenodd;stroke:none"
           d="m 237,462.3 c -5.57495,7.23115 -7.0586,16.97794 -5.24653,25.79411 2.54332,12.69774 10.63425,23.84028 20.93347,31.47675 4.96682,3.57298 10.34377,6.60127 16.1886,8.47479 7.9652,2.74778 16.74772,3.47491 24.97686,1.51863 6.90132,-1.71506 13.34572,-5.58027 17.58726,-11.35472 3.73566,-4.99909 5.58075,-11.21833 5.7311,-17.42475 0.1691,-6.18017 -1.37267,-12.36148 -3.7876,-18.01849 -3.94866,-8.58204 -10.27826,-15.94292 -17.7701,-21.63718 -7.23639,-5.1758 -15.5102,-9.08144 -24.34373,-10.491 -7.79239,-1.26205 -16.0443,-0.65885 -23.23647,2.76735 -4.34954,2.00895 -8.23492,5.07267 -11.13286,8.89451 l 0.1,0 0,0 z"
           id="path38"
           inkscape:connector-curvature="0" /><path
           d="m 231.3,482 5.6,0 0,-334.7 -5.6,0 0,334.7 z"
           inkscape:connector-curvature="0"
           id="path52"
           style="fill:#cc0066;fill-opacity:1;fill-rule:evenodd;stroke:none" /></g></g></g></svg>