<?xml version="1.0" encoding="UTF-8" standalone="no"?>
<!-- Created with Inkscape (http://www.inkscape.org/) -->

<svg
   xmlns:dc="http://purl.org/dc/elements/1.1/"
   xmlns:cc="http://creativecommons.org/ns#"
   xmlns:rdf="http://www.w3.org/1999/02/22-rdf-syntax-ns#"
   xmlns:svg="http://www.w3.org/2000/svg"
   xmlns="http://www.w3.org/2000/svg"
   xmlns:sodipodi="http://sodipodi.sourceforge.net/DTD/sodipodi-0.dtd"
   xmlns:inkscape="http://www.inkscape.org/namespaces/inkscape"
   version="1.1"
   width="675"
   height="975"
   id="svg2"
   xml:space="preserve"
   inkscape:version="0.48.4 r9939"
   sodipodi:docname="bw-Bes-2x8.svg"><sodipodi:namedview
     pagecolor="#ffffff"
     bordercolor="#666666"
     borderopacity="1"
     objecttolerance="10"
     gridtolerance="10"
     guidetolerance="10"
     inkscape:pageopacity="0"
     inkscape:pageshadow="2"
     inkscape:window-width="1680"
     inkscape:window-height="996"
     id="namedview3124"
     showgrid="false"
     inkscape:zoom="1.3692488"
     inkscape:cx="296.49609"
     inkscape:cy="454.56003"
     inkscape:window-x="-4"
     inkscape:window-y="-4"
     inkscape:window-maximized="1"
     inkscape:current-layer="g14" /><metadata
     id="metadata8"><rdf:RDF><cc:Work
         rdf:about=""><dc:format>image/svg+xml</dc:format><dc:type
           rdf:resource="http://purl.org/dc/dcmitype/StillImage" /></cc:Work></rdf:RDF></metadata><defs
     id="defs6"><clipPath
       id="clipPath16"><path
         d="M 0,0 540,0 540,780 0,780 0,0 z"
         inkscape:connector-curvature="0"
         id="path18" /></clipPath></defs><g
     transform="matrix(1.25,0,0,-1.25,0,975)"
     id="g10"><g
       id="g12"><g
         clip-path="url(#clipPath16)"
         id="g14"><path
           style="fill:#7030a0;fill-opacity:1;fill-rule:evenodd;stroke:none"
           d="m 350.9,396 c -10.05905,13.2811 -6.26982,32.18933 3.18988,44.6929 12.59026,17.50076 36.51578,28.77194 57.70306,21.35744 13.59294,-4.55269 21.4292,-19.70085 18.92509,-33.52412 C 426.64422,402.51873 400.4633,382.29483 374.35954,383.961 365.36937,384.52648 356.11593,388.84512 350.9,396 z"
           id="path100"
           inkscape:connector-curvature="0" /><path
           style="fill:#7030a0;fill-opacity:1;fill-rule:evenodd;stroke:none"
           d="m 126.8,391.9 c -10.07394,13.20813 -6.24583,32.14764 3.15187,44.61826 C 142.11776,453.2922 164.52643,464.44647 185.2,458.7 198.48175,455.38016 207.814,442.09148 207,428.51329 205.70289,403.28907 182.81304,382.7005 158.41857,379.88351 146.84545,378.46219 133.64849,382.32017 126.8,391.9 z"
           id="path114"
           inkscape:connector-curvature="0" /><path
           d="m 122.5,125.3 228.3,0 0,-45.4 -228.3,0 0,45.4 z"
           inkscape:connector-curvature="0"
           id="path128"
           style="fill:#7030a0;fill-opacity:1;fill-rule:evenodd;stroke:none" /><path
           d="m 121,416.1 5.6,0 0,-334.7 -5.6,0 0,334.7 z"
           inkscape:connector-curvature="0"
           id="path142"
           style="fill:#7030a0;fill-opacity:1;fill-rule:evenodd;stroke:none" /><path
           d="m 344.9,419.3 5.6,0 0,-334.7 -5.6,0 0,334.7 z"
           inkscape:connector-curvature="0"
           id="path156"
           style="fill:#7030a0;fill-opacity:1;fill-rule:evenodd;stroke:none" /><path
           inkscape:connector-curvature="0"
           d="m 13.136441,577.20212 0,-209.15 c 40.485168,7.13533 85.632357,22.59076 86.099997,73.225 -0.33145,11.8638 -6.75082,33.60114 -31.2,33.9 -10.623765,0.18558 -20.820605,0.4133 -47.574997,-33.225 l 0,135.25 z m 44.75,-117.625 c 18.285477,-0.27865 20.792297,-11.79042 21.694487,-22.03602 0.81544,-39.37643 -29.339911,-51.53313 -58.949999,-60.15 l -0.169488,50.33602 c 10.484792,15.64498 24.992376,32.19738 37.425,31.85 z"
           id="path3018"
           style="fill:#000000;stroke:#000000;stroke-width:0.80000001px;stroke-linecap:butt;stroke-linejoin:miter;stroke-opacity:1;display:inline" /></g></g></g></svg>