<?xml version="1.0" encoding="UTF-8" standalone="no"?>
<!-- Created with Inkscape (http://www.inkscape.org/) -->

<svg
   xmlns:dc="http://purl.org/dc/elements/1.1/"
   xmlns:cc="http://creativecommons.org/ns#"
   xmlns:rdf="http://www.w3.org/1999/02/22-rdf-syntax-ns#"
   xmlns:svg="http://www.w3.org/2000/svg"
   xmlns="http://www.w3.org/2000/svg"
   xmlns:sodipodi="http://sodipodi.sourceforge.net/DTD/sodipodi-0.dtd"
   xmlns:inkscape="http://www.inkscape.org/namespaces/inkscape"
   version="1.1"
   width="675"
   height="975"
   id="svg2"
   xml:space="preserve"
   inkscape:version="0.48.4 r9939"
   sodipodi:docname="bw-Cis2-1lijn.svg"><sodipodi:namedview
     pagecolor="#ffffff"
     bordercolor="#666666"
     borderopacity="1"
     objecttolerance="10"
     gridtolerance="10"
     guidetolerance="10"
     inkscape:pageopacity="0"
     inkscape:pageshadow="2"
     inkscape:window-width="1680"
     inkscape:window-height="996"
     id="namedview35"
     showgrid="false"
     inkscape:zoom="1.3692488"
     inkscape:cx="217.59122"
     inkscape:cy="622.40977"
     inkscape:window-x="-4"
     inkscape:window-y="-4"
     inkscape:window-maximized="1"
     inkscape:current-layer="g14" /><metadata
     id="metadata8"><rdf:RDF><cc:Work
         rdf:about=""><dc:format>image/svg+xml</dc:format><dc:type
           rdf:resource="http://purl.org/dc/dcmitype/StillImage" /><dc:title /></cc:Work></rdf:RDF></metadata><defs
     id="defs6"><clipPath
       id="clipPath16"><path
         d="M 0,0 540,0 540,780 0,780 0,0 z"
         inkscape:connector-curvature="0"
         id="path18" /></clipPath></defs><g
     transform="matrix(1.25,0,0,-1.25,0,975)"
     id="g10"><g
       id="g12"><g
         clip-path="url(#clipPath16)"
         id="g14"><path
           d="m 228.3,521.2 0,0 -1,1.5 -1,1.6 -0.9,1.7 -0.7,1.8 -0.6,1.8 -0.6,1.9 -0.4,1.9 -0.3,1.9 -0.1,2.1 0,2 0,2.1 0.2,2 0.3,2.2 0.5,2.1 0.5,2.1 0.7,2.1 0.8,2.2 0.9,2.1 1,2.1 1.1,2 1.2,2.1 1.4,2 1.3,2 1.5,1.9 1.7,1.9 1.6,1.8 1.8,1.8 1.8,1.7 1.9,1.6 2,1.5 0,0 2.1,1.5 2.1,1.4 2.1,1.3 2.2,1.2 2.2,1.2 2.2,1 2.3,0.9 2.2,0.8 2.3,0.7 2.4,0.7 2.2,0.5 2.3,0.3 2.3,0.4 2.3,0.1 2.2,0.1 2.2,0 2.2,-0.2 2.1,-0.3 2,-0.4 2.1,-0.5 1.9,-0.5 1.9,-0.7 1.8,-0.8 1.7,-0.9 1.7,-1.1 1.6,-1.1 1.5,-1.2 1.4,-1.3 1.2,-1.4 1.2,-1.4 0,0 1.1,-1.5 1,-1.7 0.8,-1.7 0.8,-1.7 0.6,-1.8 0.5,-1.9 0.5,-1.9 0.2,-1.9 0.2,-2.1 0,-2 -0.1,-2.1 -0.1,-2.1 -0.4,-2.1 -0.4,-2.1 -0.6,-2.1 -0.7,-2.2 -0.7,-2.1 -0.9,-2.1 -1,-2.1 -1.2,-2.1 -1.2,-2 -1.3,-2 -1.4,-2 -1.5,-1.9 -1.6,-1.9 -1.7,-1.8 -1.8,-1.8 -1.8,-1.7 -1.9,-1.6 -2,-1.6 0,0.1 -2,-1.5 -2.1,-1.4 -2.2,-1.3 -2.1,-1.2 -2.3,-1.2 -2.2,-1 -2.2,-0.9 -2.3,-0.8 -2.3,-0.8 -2.4,-0.6 -2.3,-0.5 -2.2,-0.4 -2.3,-0.3 -2.3,-0.1 -2.2,-0.1 -2.2,0 -2.2,0.2 -2.1,0.3 -2.1,0.4 -2,0.4 -2,0.6 -1.8,0.7 -1.8,0.8 -1.8,0.9 -1.6,1.1 -1.6,1.1 -1.5,1.2 -1.4,1.3 -1.3,1.3 -1.1,1.5 0,0 z"
           inkscape:connector-curvature="0"
           id="path38"
           style="fill:#c00000;fill-opacity:1;fill-rule:evenodd;stroke:#c00000;stroke-opacity:1" /><g
           id="g54"><path
             d="m 222.6,546.2 5.5,0 0,-334.7 -5.5,0 0,334.7 z"
             inkscape:connector-curvature="0"
             id="path56"
             style="fill:#c00000;fill-opacity:1;stroke:#c00000;stroke-width:2.00929999;stroke-linecap:butt;stroke-linejoin:round;stroke-miterlimit:10;stroke-opacity:1;stroke-dasharray:none" /></g><g
           transform="translate(-19.258199,92.960631)"
           id="g24"><text
   transform="matrix(1,0,0,-1,131.7,415.3)"
   id="text26"><tspan
     x="0"
     y="0"
     id="tspan28"
     style="font-size:131.30000305px;font-variant:normal;font-weight:normal;writing-mode:lr-tb;fill:#000000;fill-opacity:1;fill-rule:nonzero;stroke:none;font-family:OpenSymbol;-inkscape-font-specification:OpenSymbol">#</tspan></text>


</g></g></g></g></svg>