<?xml version="1.0" encoding="UTF-8" standalone="no"?>
<!-- Created with Inkscape (http://www.inkscape.org/) -->

<svg
   xmlns:dc="http://purl.org/dc/elements/1.1/"
   xmlns:cc="http://creativecommons.org/ns#"
   xmlns:rdf="http://www.w3.org/1999/02/22-rdf-syntax-ns#"
   xmlns:svg="http://www.w3.org/2000/svg"
   xmlns="http://www.w3.org/2000/svg"
   xmlns:sodipodi="http://sodipodi.sourceforge.net/DTD/sodipodi-0.dtd"
   xmlns:inkscape="http://www.inkscape.org/namespaces/inkscape"
   version="1.1"
   width="675"
   height="975"
   id="svg2"
   xml:space="preserve"
   inkscape:version="0.48.4 r9939"
   sodipodi:docname="bw-Cis-maj.svg"><sodipodi:namedview
     pagecolor="#ffffff"
     bordercolor="#666666"
     borderopacity="1"
     objecttolerance="10"
     gridtolerance="10"
     guidetolerance="10"
     inkscape:pageopacity="0"
     inkscape:pageshadow="2"
     inkscape:window-width="1680"
     inkscape:window-height="996"
     id="namedview5057"
     showgrid="false"
     inkscape:zoom="0.96820513"
     inkscape:cx="264.49256"
     inkscape:cy="428.9409"
     inkscape:window-x="-4"
     inkscape:window-y="-4"
     inkscape:window-maximized="1"
     inkscape:current-layer="g6491" /><metadata
     id="metadata8"><rdf:RDF><cc:Work
         rdf:about=""><dc:format>image/svg+xml</dc:format><dc:type
           rdf:resource="http://purl.org/dc/dcmitype/StillImage" /><dc:title /></cc:Work></rdf:RDF></metadata><defs
     id="defs6"><clipPath
       id="clipPath16"><path
         d="M 0,0 540,0 540,780 0,780 0,0 z"
         inkscape:connector-curvature="0"
         id="path18" /></clipPath></defs><g
     transform="matrix(1.25,0,0,-1.25,0,975)"
     id="g10"><g
       id="g12"><g
         clip-path="url(#clipPath16)"
         id="g14"><g
           id="g6491"><path
   style="fill:#0f7ad3;fill-opacity:1;fill-rule:evenodd;stroke:#0f7ad3;stroke-opacity:1"
   id="path108"
   inkscape:connector-curvature="0"
   d="m 230.9,293.4 0,0 -1.1,1.5 -1,1.7 -0.9,1.7 -0.7,1.7 -0.7,1.8 -0.6,1.9 -0.4,1.9 -0.3,2 -0.2,2 -0.1,2 0.1,2.1 0.1,2.1 0.3,2 0.4,2.2 0.5,2.1 0.6,2.1 0.8,2.1 0.8,2.1 1,2 1,2.1 1.2,2 1.3,2 1.3,1.9 1.5,1.9 1.5,1.8 1.6,1.8 1.7,1.7 1.8,1.7 1.9,1.6 1.9,1.5 0,0 2,1.4 2,1.4 2.1,1.2 2.1,1.2 2.1,1.1 2.2,0.9 2.3,0.9 2.2,0.8 2.2,0.7 2.3,0.6 2.2,0.4 2.3,0.4 2.3,0.2 2.2,0.1 2.2,0.1 2.1,-0.1 2.2,-0.2 2.1,-0.3 2,-0.4 2,-0.6 1.9,-0.6 1.9,-0.7 1.8,-0.9 1.7,-0.9 1.7,-1 1.5,-1.2 1.5,-1.2 1.4,-1.3 1.3,-1.4 1.2,-1.4 0,-0.1 1.1,-1.5 1,-1.6 0.9,-1.7 0.7,-1.8 0.7,-1.8 0.5,-1.9 0.4,-1.9 0.3,-1.9 0.2,-2.1 0.1,-2 0,-2.1 -0.2,-2 -0.3,-2.1 -0.3,-2.1 -0.6,-2.1 -0.6,-2.2 -0.7,-2.1 -0.8,-2 -1,-2.1 -1.1,-2.1 -1.1,-2 -1.3,-2 -1.4,-1.9 -1.4,-1.9 -1.6,-1.8 -1.6,-1.8 -1.7,-1.7 -1.8,-1.7 -1.8,-1.6 -1.9,-1.5 0,0.1 -2,-1.5 -2.1,-1.3 -2,-1.3 -2.1,-1.2 -2.2,-1 -2.2,-1 -2.2,-0.9 -2.2,-0.7 -2.3,-0.8 -2.2,-0.5 -2.3,-0.5 -2.3,-0.3 -2.2,-0.3 -2.2,-0.1 -2.2,0 -2.2,0 -2.1,0.2 -2.1,0.4 -2.1,0.4 -1.9,0.5 -2,0.6 -1.8,0.8 -1.9,0.8 -1.7,0.9 -1.6,1.1 -1.6,1.1 -1.5,1.2 -1.4,1.3 -1.3,1.4 -1.1,1.5 0,0 z" /><g
   id="g124"
   style="fill:#c00000;fill-opacity:1;stroke:#c00000;stroke-opacity:1"><path
     style="fill:#c00000;stroke:#c00000;stroke-width:2.00929999000000015;stroke-linecap:butt;stroke-linejoin:round;stroke-miterlimit:10;stroke-opacity:1;stroke-dasharray:none;fill-opacity:1"
     id="path126"
     inkscape:connector-curvature="0"
     d="m 227.7,103.7 0,0 -1.1,1.6 -0.9,1.6 -0.9,1.7 -0.7,1.7 -0.7,1.8 -0.5,1.9 -0.4,1.9 -0.3,2 -0.2,2 0,2 0.1,2.1 0.2,2.1 0.3,2.1 0.4,2.1 0.6,2.2 0.7,2.1 0.8,2.1 0.8,2.1 1.1,2.1 1.1,2.1 1.2,2 1.3,2.1 1.4,1.9 1.5,1.9 1.6,1.9 1.7,1.8 1.8,1.8 1.8,1.7 1.9,1.6 2,1.6 0,0 2.1,1.5 2,1.3 2.2,1.3 2.1,1.3 2.2,1.1 2.3,1 2.2,1 2.3,0.8 2.3,0.7 2.3,0.6 2.3,0.5 2.3,0.4 2.3,0.3 2.2,0.2 2.3,0 2.2,0 2.1,-0.2 2.1,-0.2 2.1,-0.4 2.1,-0.5 1.9,-0.6 1.9,-0.7 1.8,-0.8 1.7,-0.9 1.7,-1 1.6,-1.2 1.4,-1.2 1.4,-1.2 1.3,-1.4 1.2,-1.5 0,0 1.1,-1.5 1,-1.6 0.8,-1.7 0.7,-1.7 0.7,-1.9 0.5,-1.9 0.4,-1.9 0.3,-1.9 0.2,-2 0,-2.1 -0.1,-2 -0.2,-2.1 -0.3,-2.1 -0.4,-2.2 -0.6,-2.1 -0.7,-2.1 -0.7,-2.2 -1,-2.1 -0.9,-2.1 -1.2,-2 -1.2,-2.1 -1.3,-2 -1.5,-2 -1.5,-1.9 -1.5,-1.9 -1.7,-1.8 -1.8,-1.7 -1.8,-1.8 -1.9,-1.6 -2,-1.5 0,0 -2.1,-1.5 -2.1,-1.4 -2.1,-1.3 -2.2,-1.2 -2.2,-1.1 -2.2,-1 -2.3,-1 -2.3,-0.8 -2.3,-0.7 -2.3,-0.6 -2.3,-0.5 -2.3,-0.4 -2.2,-0.3 -2.3,-0.2 -2.2,-0.1 -2.2,0.1 -2.2,0.1 -2.1,0.3 -2.1,0.4 -2,0.5 -2,0.6 -1.8,0.7 -1.9,0.8 -1.7,0.9 -1.6,1 -1.6,1.1 -1.5,1.2 -1.4,1.3 -1.3,1.4 -1.1,1.4 0,0 z" /></g><path
   style="fill:#000000;fill-opacity:1;fill-rule:evenodd;stroke:none"
   id="path136"
   inkscape:connector-curvature="0"
   d="m 310.9,542.1 5.3,0 0,-403.7 -5.3,0 0,403.7 z" /><g
   id="g152"><path
     style="fill:#c00000;stroke:#c00000;stroke-width:2.00929999000000015;stroke-linecap:butt;stroke-linejoin:round;stroke-miterlimit:10;stroke-opacity:1;stroke-dasharray:none;fill-opacity:1"
     id="path154"
     inkscape:connector-curvature="0"
     d="m 197.9,136.4 140.3,0 0,-7.5 -140.3,0 0,7.5 z" /></g><g
   transform="translate(-15.710741,1.4674128)"
   id="g24"><text
   id="text26"
   transform="matrix(1,0,0,-1,126.5,88.7)"><tspan
     style="font-size:131.30000305px;font-variant:normal;font-weight:normal;writing-mode:lr-tb;fill:#000000;fill-opacity:1;fill-rule:nonzero;stroke:none;font-family:OpenSymbol;-inkscape-font-specification:OpenSymbol"
     id="tspan28"
     y="0"
     x="0">#</tspan></text>

</g><text
   style="font-size:12px"
   y="-276.90472"
   x="120.70451"
   id="text26-6"
   transform="scale(1,-1)"><tspan
     style="font-size:131.30000305px;font-variant:normal;font-weight:normal;writing-mode:lr-tb;fill:#000000;fill-opacity:1;fill-rule:nonzero;stroke:none;font-family:OpenSymbol;-inkscape-font-specification:OpenSymbol"
     id="tspan28-6"
     y="-276.90472"
     x="120.70451">#</tspan></text>

<path
   d="m 322.22797,247.04831 0,0 -1.1,1.6 -0.9,1.6 -0.9,1.7 -0.8,1.7 -0.6,1.8 -0.6,1.9 -0.4,1.9 -0.3,2 -0.2,2 -0.1,2 0,2.1 0.2,2.1 0.3,2.1 0.4,2.1 0.5,2.1 0.6,2.1 0.7,2.1 0.9,2.1 0.9,2 1.1,2.1 1.2,2 1.2,2 1.4,1.9 1.5,1.9 1.5,1.8 1.6,1.8 1.7,1.8 1.8,1.6 1.8,1.6 2,1.5 0,0 1.9,1.4 2.1,1.4 2,1.2 2.2,1.2 2.1,1.1 2.2,1 2.2,0.9 2.3,0.7 2.2,0.7 2.3,0.6 2.2,0.5 2.3,0.3 2.2,0.2 2.2,0.2 2.2,0 2.2,-0.1 2.1,-0.2 2.1,-0.3 2.1,-0.4 2,-0.5 1.9,-0.7 1.9,-0.7 1.8,-0.9 1.7,-0.9 1.7,-1 1.5,-1.1 1.5,-1.3 1.4,-1.3 1.3,-1.4 1.2,-1.4 -0.1,-0.1 1.1,-1.5 1,-1.6 0.9,-1.7 0.8,-1.8 0.6,-1.8 0.6,-1.8 0.4,-2 0.3,-1.9 0.2,-2 0.1,-2.1 0,-2.1 -0.2,-2 -0.3,-2.1 -0.4,-2.1 -0.5,-2.1 -0.6,-2.1 -0.8,-2.1 -0.8,-2.1 -0.9,-2.1 -1.1,-2 -1.1,-2.1 -1.4,-1.9 -1.3,-2 -1.4,-1.8 -1.6,-1.9 -1.6,-1.8 -1.7,-1.7 -1.8,-1.7 -1.8,-1.6 -2,-1.5 0,0.1 -1.9,-1.4 -2.1,-1.4 -2.1,-1.3 -2.1,-1.1 -2.1,-1.1 -2.2,-1 -2.2,-0.9 -2.3,-0.7 -2.2,-0.7 -2.2,-0.6 -2.3,-0.5 -2.3,-0.3 -2.2,-0.3 -2.2,-0.1 -2.2,0 -2.2,0.1 -2.2,0.2 -2,0.3 -2.1,0.4 -2,0.5 -1.9,0.6 -1.9,0.8 -1.8,0.8 -1.7,1 -1.7,1 -1.5,1.1 -1.5,1.2 -1.4,1.3 -1.3,1.4 -1.2,1.5 0,0 z"
   inkscape:connector-curvature="0"
   id="path38-9"
   style="fill:#00cc00;fill-opacity:1;fill-rule:evenodd;stroke:none" /></g></g></g></g></svg>