<?xml version="1.0" encoding="UTF-8" standalone="no"?>
<!-- Created with Inkscape (http://www.inkscape.org/) -->

<svg
   xmlns:dc="http://purl.org/dc/elements/1.1/"
   xmlns:cc="http://creativecommons.org/ns#"
   xmlns:rdf="http://www.w3.org/1999/02/22-rdf-syntax-ns#"
   xmlns:svg="http://www.w3.org/2000/svg"
   xmlns="http://www.w3.org/2000/svg"
   xmlns:sodipodi="http://sodipodi.sourceforge.net/DTD/sodipodi-0.dtd"
   xmlns:inkscape="http://www.inkscape.org/namespaces/inkscape"
   version="1.1"
   width="675"
   height="975"
   id="svg2"
   xml:space="preserve"
   inkscape:version="0.48.4 r9939"
   sodipodi:docname="bw-D.svg"><sodipodi:namedview
     pagecolor="#ffffff"
     bordercolor="#666666"
     borderopacity="1"
     objecttolerance="10"
     gridtolerance="10"
     guidetolerance="10"
     inkscape:pageopacity="0"
     inkscape:pageshadow="2"
     inkscape:window-width="1680"
     inkscape:window-height="996"
     id="namedview3318"
     showgrid="false"
     inkscape:zoom="5.4769953"
     inkscape:cx="348.51013"
     inkscape:cy="329.89144"
     inkscape:window-x="-4"
     inkscape:window-y="-4"
     inkscape:window-maximized="1"
     inkscape:current-layer="g14" /><metadata
     id="metadata8"><rdf:RDF><cc:Work
         rdf:about=""><dc:format>image/svg+xml</dc:format><dc:type
           rdf:resource="http://purl.org/dc/dcmitype/StillImage" /></cc:Work></rdf:RDF></metadata><defs
     id="defs6"><clipPath
       id="clipPath16"><path
         d="M 0,0 540,0 540,780 0,780 0,0 z"
         inkscape:connector-curvature="0"
         id="path18" /></clipPath></defs><g
     transform="matrix(1.25,0,0,-1.25,0,975)"
     id="g10"><g
       id="g12"><g
         clip-path="url(#clipPath16)"
         id="g14"><path
           d="m 238.3,150.4 0,0 -1.1,1.6 -1,1.6 -0.8,1.7 -0.8,1.8 -0.7,1.8 -0.5,1.8 -0.4,1.9 -0.4,2 -0.2,2 0,2.1 0,2 0.2,2.1 0.2,2.1 0.4,2.1 0.5,2.1 0.7,2.1 0.7,2.1 0.8,2.1 1,2.1 1.1,2 1.1,2.1 1.3,1.9 1.3,1.9 1.5,1.9 1.5,1.9 1.7,1.8 1.7,1.7 1.7,1.6 1.9,1.6 1.9,1.5 0,0 2,1.5 2,1.3 2.1,1.3 2.1,1.1 2.2,1.1 2.2,1 2.2,0.9 2.2,0.8 2.3,0.6 2.2,0.6 2.3,0.5 2.2,0.3 2.3,0.3 2.2,0.1 2.2,0 2.2,-0.1 2.1,-0.2 2.1,-0.3 2,-0.4 2,-0.5 2,-0.6 1.8,-0.8 1.8,-0.8 1.8,-0.9 1.6,-1.1 1.6,-1.1 1.4,-1.2 1.4,-1.3 1.3,-1.4 1.2,-1.5 0,0 1.1,-1.6 1,-1.6 0.9,-1.7 0.7,-1.8 0.7,-1.8 0.5,-1.8 0.5,-1.9 0.3,-2 0.2,-2 0.1,-2 -0.1,-2.1 -0.1,-2.1 -0.3,-2.1 -0.4,-2.1 -0.5,-2.1 -0.7,-2.1 -0.7,-2.1 -0.8,-2.1 -1,-2.1 -1,-2 -1.2,-2 -1.3,-2 -1.3,-1.9 -1.5,-1.9 -1.5,-1.9 -1.6,-1.7 -1.7,-1.8 -1.8,-1.6 -1.9,-1.6 -1.9,-1.5 0,0 -2,-1.4 -2,-1.4 -2.1,-1.2 -2.1,-1.2 -2.2,-1.1 -2.2,-1 -2.2,-0.8 -2.2,-0.8 -2.2,-0.7 -2.3,-0.6 -2.3,-0.4 -2.2,-0.4 -2.3,-0.2 -2.2,-0.1 -2.2,-0.1 -2.1,0.1 -2.2,0.2 -2.1,0.3 -2,0.4 -2,0.5 -1.9,0.7 -1.9,0.7 -1.8,0.8 -1.8,1 -1.6,1 -1.6,1.1 -1.5,1.3 -1.3,1.3 -1.3,1.4 -1.2,1.5 0,-0.1 z"
           inkscape:connector-curvature="0"
           id="path94"
           style="fill:#e95527;fill-opacity:1;fill-rule:evenodd;stroke:none" /><path
           d="m 313.3,517.3 5.5,0 0,-334.7 -5.5,0 0,334.7 z"
           inkscape:connector-curvature="0"
           id="path108"
           style="fill:#e95527;fill-opacity:1;fill-rule:evenodd;stroke:none" /></g></g></g></svg>