<?xml version="1.0" encoding="UTF-8" standalone="no"?>
<!-- Created with Inkscape (http://www.inkscape.org/) -->

<svg
   xmlns:dc="http://purl.org/dc/elements/1.1/"
   xmlns:cc="http://creativecommons.org/ns#"
   xmlns:rdf="http://www.w3.org/1999/02/22-rdf-syntax-ns#"
   xmlns:svg="http://www.w3.org/2000/svg"
   xmlns="http://www.w3.org/2000/svg"
   xmlns:sodipodi="http://sodipodi.sourceforge.net/DTD/sodipodi-0.dtd"
   xmlns:inkscape="http://www.inkscape.org/namespaces/inkscape"
   version="1.1"
   width="675"
   height="975"
   id="svg2"
   xml:space="preserve"
   inkscape:version="0.48.4 r9939"
   sodipodi:docname="bw-Dis-2x8-alt.svg"><sodipodi:namedview
     pagecolor="#ffffff"
     bordercolor="#666666"
     borderopacity="1"
     objecttolerance="10"
     gridtolerance="10"
     guidetolerance="10"
     inkscape:pageopacity="0"
     inkscape:pageshadow="2"
     inkscape:window-width="1680"
     inkscape:window-height="996"
     id="namedview3931"
     showgrid="false"
     inkscape:zoom="0.68462441"
     inkscape:cx="67.863413"
     inkscape:cy="374.59141"
     inkscape:window-x="-4"
     inkscape:window-y="-4"
     inkscape:window-maximized="1"
     inkscape:current-layer="g14" /><metadata
     id="metadata8"><rdf:RDF><cc:Work
         rdf:about=""><dc:format>image/svg+xml</dc:format><dc:type
           rdf:resource="http://purl.org/dc/dcmitype/StillImage" /></cc:Work></rdf:RDF></metadata><defs
     id="defs6"><clipPath
       id="clipPath16"><path
         d="M 0,0 540,0 540,780 0,780 0,0 z"
         inkscape:connector-curvature="0"
         id="path18" /></clipPath></defs><g
     transform="matrix(1.25,0,0,-1.25,0,975)"
     id="g10"><g
       id="g12"><g
         clip-path="url(#clipPath16)"
         id="g14"><path
   d="m 111.6,155 0,0 -1.1,1.5 -0.9,1.7 -0.9,1.7 -0.8,1.7 -0.7,1.8 -0.5,1.9 -0.4,1.9 -0.3,2 -0.2,2 -0.1,2 0,2.1 0.2,2.1 0.3,2.1 0.4,2.1 0.5,2.1 0.6,2.1 0.7,2.1 0.8,2.1 1,2 1.1,2.1 1.2,2 1.2,2 1.4,1.9 1.4,1.9 1.6,1.8 1.6,1.8 1.7,1.8 1.8,1.6 1.8,1.6 1.9,1.5 0,0 2,1.4 2,1.4 2.1,1.2 2.2,1.2 2.1,1.1 2.2,1 2.2,0.9 2.2,0.7 2.3,0.7 2.3,0.6 2.2,0.5 2.3,0.3 2.2,0.2 2.2,0.2 2.2,0 2.2,-0.1 2.1,-0.2 2.1,-0.3 2,-0.4 2.1,-0.5 1.9,-0.7 1.8,-0.7 1.9,-0.9 1.7,-0.9 1.6,-1 1.6,-1.1 1.5,-1.3 1.4,-1.3 1.3,-1.4 1.2,-1.4 -0.1,-0.1 1.1,-1.5 1,-1.6 0.9,-1.7 0.8,-1.8 0.6,-1.8 0.6,-1.8 0.4,-2 0.3,-1.9 0.2,-2 0.1,-2.1 -0.1,-2.1 -0.1,-2 -0.3,-2.1 -0.4,-2.1 -0.5,-2.1 -0.6,-2.1 -0.8,-2.1 -0.8,-2.1 -1,-2.1 -1,-2 -1.2,-2.1 -1.3,-1.9 -1.3,-2 -1.5,-1.8 -1.5,-1.9 -1.6,-1.8 -1.7,-1.7 -1.8,-1.7 -1.9,-1.6 -1.9,-1.5 0,0.1 -2,-1.5 -2,-1.3 -2.1,-1.3 -2.1,-1.1 -2.2,-1.1 -2.2,-1 -2.2,-0.9 -2.2,-0.7 -2.2,-0.7 -2.3,-0.6 -2.2,-0.5 -2.3,-0.3 -2.2,-0.3 -2.3,-0.1 -2.2,0 -2.1,0.1 -2.2,0.2 -2,0.3 -2.1,0.4 -2,0.5 -1.9,0.6 -1.9,0.8 -1.8,0.8 -1.7,0.9 -1.7,1.1 -1.5,1.1 -1.5,1.2 -1.4,1.3 -1.3,1.4 -1.2,1.5 0,0 z"
   inkscape:connector-curvature="0"
   id="path94"
   style="fill:#fd8c0f;fill-opacity:1;fill-rule:evenodd;stroke:none" /><path
   d="m 183.5,445.6 9.2,0 0,-262.9 -9.2,0 0,262.9 z"
   inkscape:connector-curvature="0"
   id="path108"
   style="fill:#fd8c0f;fill-opacity:1;fill-rule:evenodd;stroke:none" /><path
   d="M 183.9,406.3 183.5,453 410.6,511.8 411,465 183.9,406.3 z"
   inkscape:connector-curvature="0"
   id="path122"
   style="fill:#fd8c0f;fill-opacity:1;fill-rule:evenodd;stroke:none" /><path
   d="m 329.8,151.2 0,0 -1.1,1.5 -1,1.7 -0.8,1.7 -0.8,1.7 -0.7,1.8 -0.5,1.9 -0.4,1.9 -0.4,2 -0.2,2 0,2 0,2.1 0.2,2.1 0.2,2.1 0.4,2.1 0.5,2.1 0.7,2.1 0.7,2.1 0.8,2.1 1,2 1.1,2.1 1.1,2 1.3,2 1.3,1.9 1.5,1.9 1.5,1.8 1.7,1.8 1.7,1.8 1.7,1.6 1.9,1.6 1.9,1.5 0,0 2,1.4 2,1.4 2.1,1.2 2.1,1.2 2.2,1.1 2.2,1 2.2,0.9 2.2,0.7 2.3,0.7 2.2,0.6 2.3,0.5 2.2,0.3 2.3,0.2 2.2,0.2 2.2,0 2.2,-0.1 2.1,-0.2 2.1,-0.3 2,-0.4 2,-0.5 2,-0.7 1.8,-0.7 1.8,-0.9 1.8,-0.9 1.6,-1 1.6,-1.1 1.5,-1.3 1.3,-1.3 1.3,-1.4 1.2,-1.4 0,-0.1 1.1,-1.5 1,-1.6 0.9,-1.7 0.7,-1.8 0.7,-1.8 0.5,-1.8 0.5,-2 0.3,-1.9 0.2,-2 0.1,-2.1 -0.1,-2.1 -0.1,-2 -0.3,-2.1 -0.4,-2.1 -0.5,-2.1 -0.7,-2.1 -0.7,-2.1 -0.8,-2.1 -1,-2.1 -1,-2 -1.2,-2.1 -1.3,-1.9 -1.3,-2 -1.5,-1.8 -1.5,-1.9 -1.6,-1.8 -1.7,-1.7 -1.8,-1.7 -1.9,-1.6 -1.9,-1.5 0,0.1 -2,-1.4 -2,-1.4 -2.1,-1.3 -2.1,-1.1 -2.2,-1.1 -2.2,-1 -2.2,-0.9 -2.2,-0.7 -2.2,-0.7 -2.3,-0.6 -2.3,-0.5 -2.2,-0.3 -2.3,-0.3 -2.2,-0.1 -2.2,0 -2.1,0.1 -2.2,0.2 -2.1,0.3 -2,0.4 -2,0.5 -1.9,0.6 -1.9,0.8 -1.8,0.8 -1.8,1 -1.6,1 -1.6,1.1 -1.5,1.2 -1.3,1.3 -1.3,1.4 -1.2,1.5 0,0 z"
   inkscape:connector-curvature="0"
   id="path136"
   style="fill:#fd8c0f;fill-opacity:1;fill-rule:evenodd;stroke:none" /><path
   d="m 401.8,469.4 9.1,0 0,-290.5 -9.1,0 0,290.5 z"
   inkscape:connector-curvature="0"
   id="path150"
   style="fill:#fd8c0f;fill-opacity:1;fill-rule:evenodd;stroke:none" /><text
   style="font-size:12px"
   y="-131.48097"
   x="13.289258"
   id="text26"
   transform="scale(1,-1)"><tspan
     style="font-size:131.30000305px;font-variant:normal;font-weight:normal;writing-mode:lr-tb;fill:#000000;fill-opacity:1;fill-rule:nonzero;stroke:none;font-family:OpenSymbol;-inkscape-font-specification:OpenSymbol"
     id="tspan28"
     y="-131.48097"
     x="13.289258">#</tspan></text>

</g></g></g></svg>