<?xml version="1.0" encoding="UTF-8" standalone="no"?>
<!-- Created with Inkscape (http://www.inkscape.org/) -->

<svg
   xmlns:dc="http://purl.org/dc/elements/1.1/"
   xmlns:cc="http://creativecommons.org/ns#"
   xmlns:rdf="http://www.w3.org/1999/02/22-rdf-syntax-ns#"
   xmlns:svg="http://www.w3.org/2000/svg"
   xmlns="http://www.w3.org/2000/svg"
   xmlns:sodipodi="http://sodipodi.sourceforge.net/DTD/sodipodi-0.dtd"
   xmlns:inkscape="http://www.inkscape.org/namespaces/inkscape"
   version="1.1"
   width="675"
   height="975"
   id="svg2"
   xml:space="preserve"
   inkscape:version="0.48.4 r9939"
   sodipodi:docname="bw-Dis-1x8.svg"><sodipodi:namedview
     pagecolor="#ffffff"
     bordercolor="#666666"
     borderopacity="1"
     objecttolerance="10"
     gridtolerance="10"
     guidetolerance="10"
     inkscape:pageopacity="0"
     inkscape:pageshadow="2"
     inkscape:window-width="1680"
     inkscape:window-height="996"
     id="namedview68"
     showgrid="false"
     inkscape:zoom="0.48410256"
     inkscape:cx="361.51685"
     inkscape:cy="453.9801"
     inkscape:window-x="-4"
     inkscape:window-y="-4"
     inkscape:window-maximized="1"
     inkscape:current-layer="svg2" /><metadata
     id="metadata8"><rdf:RDF><cc:Work
         rdf:about=""><dc:format>image/svg+xml</dc:format><dc:type
           rdf:resource="http://purl.org/dc/dcmitype/StillImage" /></cc:Work></rdf:RDF></metadata><defs
     id="defs6"><clipPath
       id="clipPath16"><path
         d="M 0,0 540,0 540,780 0,780 0,0 z"
         inkscape:connector-curvature="0"
         id="path18" /></clipPath></defs><path
     d="m 297.875,787 0,0 -1.375,-2 -1.25,-2 -1,-2.125 -1,-2.25 -0.875,-2.25 -0.625,-2.25 -0.5,-2.375 -0.5,-2.5 -0.25,-2.5 0,-2.625 0,-2.5 0.25,-2.625 0.25,-2.625 0.5,-2.625 0.625,-2.625 0.875,-2.625 0.875,-2.625 1,-2.625 1.25,-2.625 1.375,-2.5 1.375,-2.625 1.625,-2.375 1.625,-2.375 1.875,-2.375 1.875,-2.375 2.125,-2.25 2.125,-2.125 2.125,-2 2.375,-2 2.375,-1.875 0,0 2.5,-1.875 2.5,-1.625 2.625,-1.625 2.625,-1.375 2.75,-1.375 2.75,-1.25 2.75,-1.125 2.75,-1 2.875,-0.75 2.75,-0.75 2.875,-0.625 2.75,-0.375 2.875,-0.375 2.75,-0.125 2.75,0 2.75,0.125 2.625,0.25 2.625,0.375 2.5,0.5 2.5,0.625 2.5,0.75 2.25,1 2.25,1 2.25,1.125 2,1.375 2,1.375 1.75,1.5 1.75,1.625 1.625,1.75 1.5,1.875 0,0 1.375,2 1.25,2 1.125,2.125 0.875,2.25 0.875,2.25 0.625,2.25 0.625,2.375 0.375,2.5 0.25,2.5 0.125,2.5 -0.125,2.625 -0.125,2.625 -0.375,2.625 -0.5,2.625 -0.625,2.625 -0.875,2.625 -0.875,2.625 -1,2.625 -1.25,2.625 -1.25,2.5 -1.5,2.5 -1.625,2.5 -1.625,2.375 -1.875,2.375 -1.875,2.375 -2,2.125 -2.125,2.25 -2.25,2 -2.375,2 -2.375,1.875 0,0 -2.5,1.75 -2.5,1.75 -2.625,1.5 -2.625,1.5 -2.75,1.375 -2.75,1.25 -2.75,1 -2.75,1 -2.75,0.875 -2.875,0.75 -2.875,0.5 -2.75,0.5 -2.875,0.25 -2.75,0.125 -2.75,0.125 -2.625,-0.125 -2.75,-0.25 -2.625,-0.375 -2.5,-0.5 -2.5,-0.625 -2.375,-0.875 -2.375,-0.875 -2.25,-1 -2.25,-1.25 -2,-1.25 -2,-1.375 -1.875,-1.625 -1.625,-1.625 -1.625,-1.75 -1.5,-1.875 0,0.125 z"
     inkscape:connector-curvature="0"
     id="path6071"
     style="fill:#fd8c0f;fill-opacity:1;fill-rule:evenodd;stroke:none" /><path
     d="m 387.75,414.75 11.5,0 0,328.625 -11.5,0 0,-328.625 z"
     inkscape:connector-curvature="0"
     id="path6085"
     style="fill:#fd8c0f;fill-opacity:1;fill-rule:evenodd;stroke:none" /><path
     d="M 509.875,507.625 C 504.625,431.75 393.625,459.875 388.25,384 L 387,446.125 c 5.375,75.875 116.375,47.75 121.625,123.5 l 1.25,-62 z"
     inkscape:connector-curvature="0"
     id="path6099"
     style="fill:#fd8c0f;fill-opacity:1;fill-rule:evenodd;stroke:none" /><g
     transform="matrix(1.25,0,0,-1.25,89.709032,1329.8987)"
     id="g24"><text
   transform="matrix(1,0,0,-1,57.2,415.4)"
   id="text26"><tspan
     x="0"
     y="0"
     id="tspan28"
     style="font-size:131.30000305px;font-variant:normal;font-weight:normal;writing-mode:lr-tb;fill:#000000;fill-opacity:1;fill-rule:nonzero;stroke:none;font-family:OpenSymbol;-inkscape-font-specification:OpenSymbol">#</tspan></text>


</g></svg>