<?xml version="1.0" encoding="UTF-8" standalone="no"?>
<!-- Created with Inkscape (http://www.inkscape.org/) -->

<svg
   xmlns:dc="http://purl.org/dc/elements/1.1/"
   xmlns:cc="http://creativecommons.org/ns#"
   xmlns:rdf="http://www.w3.org/1999/02/22-rdf-syntax-ns#"
   xmlns:svg="http://www.w3.org/2000/svg"
   xmlns="http://www.w3.org/2000/svg"
   xmlns:sodipodi="http://sodipodi.sourceforge.net/DTD/sodipodi-0.dtd"
   xmlns:inkscape="http://www.inkscape.org/namespaces/inkscape"
   version="1.1"
   width="675"
   height="975"
   id="svg2"
   xml:space="preserve"
   inkscape:version="0.48.4 r9939"
   sodipodi:docname="bw-E-1x8.svg"><sodipodi:namedview
     pagecolor="#ffffff"
     bordercolor="#666666"
     borderopacity="1"
     objecttolerance="10"
     gridtolerance="10"
     guidetolerance="10"
     inkscape:pageopacity="0"
     inkscape:pageshadow="2"
     inkscape:window-width="1680"
     inkscape:window-height="996"
     id="namedview61"
     showgrid="false"
     inkscape:zoom="0.96820513"
     inkscape:cx="245.90439"
     inkscape:cy="385.07093"
     inkscape:window-x="-4"
     inkscape:window-y="-4"
     inkscape:window-maximized="1"
     inkscape:current-layer="g14" /><metadata
     id="metadata8"><rdf:RDF><cc:Work
         rdf:about=""><dc:format>image/svg+xml</dc:format><dc:type
           rdf:resource="http://purl.org/dc/dcmitype/StillImage" /><dc:title /></cc:Work></rdf:RDF></metadata><defs
     id="defs6"><clipPath
       id="clipPath16"><path
         d="M 0,0 540,0 540,780 0,780 0,0 z"
         inkscape:connector-curvature="0"
         id="path18" /></clipPath></defs><g
     id="g5344"><g
       id="g10"
       transform="matrix(1.25,0,0,-1.25,0,975)"><g
         id="g12"><g
           id="g14"
           clip-path="url(#clipPath16)"><path
             style="fill:#ffcc00;fill-opacity:1;fill-rule:evenodd;stroke:none"
             id="path94"
             inkscape:connector-curvature="0"
             d="m 239.6,192.3 0,0 -1.1,1.6 -1,1.6 -0.9,1.7 -0.7,1.8 -0.7,1.8 -0.5,1.8 -0.5,1.9 -0.3,2 -0.2,2 -0.1,2.1 0.1,2 0.1,2.1 0.3,2.1 0.4,2.1 0.5,2.1 0.6,2.1 0.8,2.1 0.8,2.1 1,2.1 1,2 1.2,2.1 1.3,1.9 1.3,1.9 1.5,1.9 1.5,1.9 1.6,1.8 1.7,1.7 1.8,1.6 1.9,1.6 1.9,1.5 0,0 2,1.5 2,1.3 2.1,1.3 2.1,1.1 2.1,1.1 2.2,1 2.3,0.9 2.2,0.8 2.2,0.6 2.3,0.6 2.2,0.5 2.3,0.3 2.3,0.3 2.2,0.1 2.2,0 2.1,-0.1 2.2,-0.2 2.1,-0.3 2,-0.4 2,-0.5 1.9,-0.6 1.9,-0.8 1.8,-0.8 1.7,-0.9 1.7,-1.1 1.6,-1.1 1.4,-1.2 1.4,-1.3 1.3,-1.4 1.2,-1.5 0,0 1.1,-1.6 1,-1.6 0.9,-1.7 0.7,-1.8 0.7,-1.8 0.5,-1.8 0.4,-1.9 0.3,-2 0.2,-2 0.1,-2 0,-2.1 -0.2,-2.1 -0.2,-2.1 -0.4,-2.1 -0.6,-2.1 -0.6,-2.1 -0.7,-2.1 -0.8,-2.1 -1,-2.1 -1.1,-2 -1.1,-2 -1.3,-2 -1.3,-1.9 -1.5,-1.9 -1.6,-1.9 -1.6,-1.7 -1.7,-1.8 -1.8,-1.6 -1.8,-1.6 -1.9,-1.5 0,0 -2,-1.4 -2.1,-1.4 -2,-1.2 -2.1,-1.2 -2.2,-1.1 -2.2,-1 -2.2,-0.8 -2.2,-0.8 -2.3,-0.7 -2.2,-0.6 -2.3,-0.4 -2.2,-0.4 -2.3,-0.2 -2.2,-0.1 -2.2,-0.1 -2.2,0.1 -2.1,0.2 -2.1,0.3 -2.1,0.4 -1.9,0.5 -2,0.7 -1.8,0.7 -1.9,0.8 -1.7,1 -1.6,1 -1.6,1.1 -1.5,1.3 -1.3,1.3 -1.4,1.3 -1.1,1.5 0,0 z" /><path
             style="fill:#ffcc00;fill-opacity:1;fill-rule:evenodd;stroke:none"
             id="path108"
             inkscape:connector-curvature="0"
             d="m 311.5,490 9.1,0 0,-262.8 -9.1,0 0,262.8 z" /></g></g></g><g
       id="g124"
       transform="matrix(1.25,0,0,-1.25,0.9131356,917.52012)"><path
         style="fill:#ffcc00;fill-opacity:1;stroke:#ffcc00;stroke-width:2.00929999;stroke-linecap:butt;stroke-linejoin:round;stroke-miterlimit:10;stroke-opacity:1;stroke-dasharray:none"
         id="path126"
         inkscape:connector-curvature="0"
         d="m 407.9,373.9 c -4.2,60.7 -93,38.2 -97.3,98.9 l -1,-49.7 c 4.3,-60.7 93.1,-38.2 97.3,-98.8 l 1,49.6 z" /></g></g></svg>