<?xml version="1.0" encoding="UTF-8" standalone="no"?>
<!-- Created with Inkscape (http://www.inkscape.org/) -->

<svg
   xmlns:dc="http://purl.org/dc/elements/1.1/"
   xmlns:cc="http://creativecommons.org/ns#"
   xmlns:rdf="http://www.w3.org/1999/02/22-rdf-syntax-ns#"
   xmlns:svg="http://www.w3.org/2000/svg"
   xmlns="http://www.w3.org/2000/svg"
   xmlns:sodipodi="http://sodipodi.sourceforge.net/DTD/sodipodi-0.dtd"
   xmlns:inkscape="http://www.inkscape.org/namespaces/inkscape"
   version="1.1"
   width="675"
   height="975"
   id="svg2"
   xml:space="preserve"
   inkscape:version="0.48.4 r9939"
   sodipodi:docname="bw-E-maj.svg"><sodipodi:namedview
     pagecolor="#ffffff"
     bordercolor="#666666"
     borderopacity="1"
     objecttolerance="10"
     gridtolerance="10"
     guidetolerance="10"
     inkscape:pageopacity="0"
     inkscape:pageshadow="2"
     inkscape:window-width="1680"
     inkscape:window-height="996"
     id="namedview80"
     showgrid="false"
     inkscape:zoom="0.68462441"
     inkscape:cx="603.61311"
     inkscape:cy="400.74642"
     inkscape:window-x="-4"
     inkscape:window-y="-4"
     inkscape:window-maximized="1"
     inkscape:current-layer="g14" /><metadata
     id="metadata8"><rdf:RDF><cc:Work
         rdf:about=""><dc:format>image/svg+xml</dc:format><dc:type
           rdf:resource="http://purl.org/dc/dcmitype/StillImage" /></cc:Work></rdf:RDF></metadata><defs
     id="defs6"><clipPath
       id="clipPath16"><path
         d="M 0,0 540,0 540,780 0,780 0,0 z"
         inkscape:connector-curvature="0"
         id="path18" /></clipPath></defs><g
     transform="matrix(1.25,0,0,-1.25,0,975)"
     id="g10"><g
       id="g12"><g
         clip-path="url(#clipPath16)"
         id="g14"><g
           id="g24"
           transform="matrix(0.75081217,0,0,0.75081217,13.07309,-0.96410964)"><text
   transform="matrix(1,0,0,-1,130.1,362.6)"
   id="text26"><tspan
     x="0"
     y="0"
     id="tspan28"
     style="font-size:199px;font-variant:normal;font-weight:normal;writing-mode:lr-tb;fill:#000000;fill-opacity:1;fill-rule:nonzero;stroke:none;font-family:OpenSymbol;-inkscape-font-specification:OpenSymbol">#</tspan></text>



</g><path
           d="m 231.4,200 0,0 -1.1,1.5 -0.9,1.7 -0.9,1.7 -0.8,1.7 -0.6,1.8 -0.6,1.9 -0.4,1.9 -0.3,2 -0.2,2 -0.1,2 0,2.1 0.2,2.1 0.3,2 0.4,2.2 0.5,2.1 0.6,2.1 0.7,2.1 0.9,2.1 0.9,2 1.1,2.1 1.2,2 1.2,2 1.4,1.9 1.5,1.9 1.5,1.8 1.6,1.8 1.7,1.7 1.8,1.7 1.8,1.6 2,1.5 0,0 1.9,1.4 2.1,1.4 2.1,1.2 2.1,1.2 2.1,1.1 2.2,0.9 2.2,0.9 2.3,0.8 2.2,0.7 2.3,0.6 2.2,0.4 2.3,0.4 2.2,0.2 2.2,0.1 2.2,0.1 2.2,-0.1 2.1,-0.2 2.1,-0.3 2.1,-0.4 2,-0.6 1.9,-0.6 1.9,-0.7 1.8,-0.9 1.7,-0.9 1.7,-1 1.5,-1.2 1.5,-1.2 1.4,-1.3 1.3,-1.4 1.2,-1.4 -0.1,-0.1 1.2,-1.5 0.9,-1.6 0.9,-1.7 0.8,-1.8 0.6,-1.8 0.6,-1.9 0.4,-1.9 0.3,-1.9 0.2,-2.1 0.1,-2 0,-2.1 -0.2,-2 -0.3,-2.1 -0.4,-2.1 -0.5,-2.1 -0.6,-2.2 -0.8,-2.1 -0.8,-2.1 -0.9,-2 -1.1,-2.1 -1.1,-2 -1.4,-2 -1.3,-1.9 -1.4,-1.9 -1.6,-1.8 -1.6,-1.8 -1.7,-1.7 -1.8,-1.7 -1.8,-1.6 -2,-1.5 0,0.1 -1.9,-1.5 -2.1,-1.3 -2.1,-1.3 -2.1,-1.2 -2.1,-1 -2.2,-1 -2.2,-0.9 -2.3,-0.7 -2.2,-0.8 -2.2,-0.5 -2.3,-0.5 -2.3,-0.3 -2.2,-0.3 -2.2,-0.1 -2.2,0 -2.2,0 -2.2,0.2 -2,0.4 -2.1,0.3 -2,0.6 -1.9,0.6 -1.9,0.7 -1.8,0.9 -1.7,0.9 -1.7,1.1 -1.5,1.1 -1.5,1.2 -1.4,1.3 -1.3,1.4 -1.2,1.5 0,0 z"
           inkscape:connector-curvature="0"
           id="path100"
           style="fill:#ffcc00;fill-opacity:1;fill-rule:evenodd;stroke:none" /><path
           d="m 234.8,391.4 0,0 -1.1,1.6 -1,1.6 -0.9,1.7 -0.7,1.8 -0.7,1.8 -0.5,1.8 -0.5,1.9 -0.3,2 -0.2,2 -0.1,2.1 0.1,2 0.1,2.1 0.3,2.1 0.4,2.1 0.5,2.1 0.7,2.1 0.7,2.1 0.8,2.1 1,2.1 1.1,2 1.1,2.1 1.3,1.9 1.3,1.9 1.5,1.9 1.5,1.9 1.6,1.8 1.7,1.7 1.8,1.6 1.9,1.6 1.9,1.5 0,0 2,1.5 2,1.3 2.1,1.3 2.1,1.1 2.1,1.1 2.3,1 2.2,0.9 2.2,0.8 2.2,0.6 2.3,0.6 2.3,0.5 2.2,0.3 2.3,0.3 2.2,0.1 2.2,0 2.1,-0.1 2.2,-0.2 2.1,-0.3 2,-0.4 2,-0.5 1.9,-0.6 1.9,-0.8 1.8,-0.8 1.8,-0.9 1.6,-1.1 1.6,-1.1 1.4,-1.2 1.4,-1.3 1.3,-1.4 1.2,-1.5 0,0 1.1,-1.6 1,-1.6 0.9,-1.7 0.7,-1.8 0.7,-1.8 0.5,-1.8 0.4,-1.9 0.4,-2 0.2,-2 0,-2 0,-2.1 -0.2,-2.1 -0.2,-2.1 -0.4,-2.1 -0.5,-2.1 -0.7,-2.1 -0.7,-2.1 -0.8,-2.1 -1,-2.1 -1,-2 -1.2,-2 -1.3,-2 -1.3,-1.9 -1.5,-1.9 -1.5,-1.9 -1.7,-1.7 -1.7,-1.8 -1.7,-1.6 -1.9,-1.6 -1.9,-1.5 0,0 -2,-1.4 -2,-1.4 -2.1,-1.2 -2.1,-1.2 -2.2,-1.1 -2.2,-1 -2.2,-0.8 -2.2,-0.8 -2.3,-0.7 -2.2,-0.6 -2.3,-0.4 -2.2,-0.4 -2.3,-0.2 -2.2,-0.1 -2.2,-0.1 -2.2,0.1 -2.1,0.2 -2.1,0.3 -2,0.4 -2,0.5 -2,0.7 -1.8,0.7 -1.8,0.9 -1.8,0.9 -1.6,1 -1.6,1.1 -1.5,1.3 -1.3,1.3 -1.3,1.4 -1.2,1.5 0,-0.1 z"
           inkscape:connector-curvature="0"
           id="path114"
           style="fill:#3a2593;fill-opacity:1;fill-rule:evenodd;stroke:none" /><path
           d="m 231.4,294.9 0,0 -1.1,1.5 -0.9,1.7 -0.9,1.7 -0.8,1.7 -0.6,1.8 -0.6,1.9 -0.4,1.9 -0.3,2 -0.2,2 -0.1,2 0,2.1 0.2,2.1 0.3,2 0.4,2.2 0.5,2.1 0.6,2.1 0.7,2.1 0.9,2.1 0.9,2 1.1,2.1 1.2,2 1.2,2 1.4,1.9 1.5,1.9 1.5,1.8 1.6,1.8 1.7,1.7 1.8,1.7 1.8,1.6 2,1.5 0,0 1.9,1.4 2.1,1.4 2.1,1.2 2.1,1.2 2.1,1.1 2.2,0.9 2.2,0.9 2.3,0.8 2.2,0.7 2.3,0.6 2.2,0.4 2.3,0.4 2.2,0.2 2.2,0.2 2.2,0 2.2,-0.1 2.1,-0.2 2.1,-0.3 2.1,-0.4 2,-0.6 1.9,-0.6 1.9,-0.7 1.8,-0.9 1.7,-0.9 1.7,-1 1.5,-1.2 1.5,-1.2 1.4,-1.3 1.3,-1.4 1.2,-1.4 -0.1,-0.1 1.2,-1.5 0.9,-1.6 0.9,-1.7 0.8,-1.8 0.6,-1.8 0.6,-1.9 0.4,-1.9 0.3,-1.9 0.2,-2.1 0.1,-2 0,-2.1 -0.2,-2 -0.3,-2.1 -0.4,-2.1 -0.5,-2.1 -0.6,-2.2 -0.8,-2 -0.8,-2.1 -0.9,-2.1 -1.1,-2.1 -1.1,-2 -1.4,-2 -1.3,-1.9 -1.4,-1.9 -1.6,-1.8 -1.6,-1.8 -1.7,-1.7 -1.8,-1.7 -1.8,-1.6 -2,-1.5 0,0.1 -1.9,-1.5 -2.1,-1.3 -2.1,-1.3 -2.1,-1.2 -2.1,-1 -2.2,-1 -2.2,-0.9 -2.3,-0.7 -2.2,-0.8 -2.2,-0.5 -2.3,-0.5 -2.3,-0.3 -2.2,-0.3 -2.2,-0.1 -2.2,0 -2.2,0 -2.2,0.2 -2,0.4 -2.1,0.4 -2,0.5 -1.9,0.6 -1.9,0.8 -1.8,0.8 -1.7,0.9 -1.7,1.1 -1.5,1.1 -1.5,1.2 -1.4,1.3 -1.3,1.4 -1.2,1.5 0,0 z"
           inkscape:connector-curvature="0"
           id="path128"
           style="fill:#0f7ad3;fill-opacity:1;fill-rule:evenodd;stroke:none" /><path
           d="m 313,637 5.3,0 0,-403.6 -5.3,0 0,403.6 z"
           inkscape:connector-curvature="0"
           id="path142"
           style="fill:#000000;fill-opacity:1;fill-rule:evenodd;stroke:none" /></g></g></g></svg>