<?xml version="1.0" encoding="UTF-8" standalone="no"?>
<!-- Created with Inkscape (http://www.inkscape.org/) -->

<svg
   xmlns:dc="http://purl.org/dc/elements/1.1/"
   xmlns:cc="http://creativecommons.org/ns#"
   xmlns:rdf="http://www.w3.org/1999/02/22-rdf-syntax-ns#"
   xmlns:svg="http://www.w3.org/2000/svg"
   xmlns="http://www.w3.org/2000/svg"
   xmlns:sodipodi="http://sodipodi.sourceforge.net/DTD/sodipodi-0.dtd"
   xmlns:inkscape="http://www.inkscape.org/namespaces/inkscape"
   version="1.1"
   width="675"
   height="975"
   id="svg2"
   xml:space="preserve"
   inkscape:version="0.48.4 r9939"
   sodipodi:docname="bw-Es-min.svg"><sodipodi:namedview
     pagecolor="#ffffff"
     bordercolor="#666666"
     borderopacity="1"
     objecttolerance="10"
     gridtolerance="10"
     guidetolerance="10"
     inkscape:pageopacity="0"
     inkscape:pageshadow="2"
     inkscape:window-width="1680"
     inkscape:window-height="996"
     id="namedview3457"
     showgrid="false"
     inkscape:zoom="1.3692488"
     inkscape:cx="374.83715"
     inkscape:cy="624.10729"
     inkscape:window-x="-4"
     inkscape:window-y="-4"
     inkscape:window-maximized="1"
     inkscape:current-layer="g14" /><metadata
     id="metadata8"><rdf:RDF><cc:Work
         rdf:about=""><dc:format>image/svg+xml</dc:format><dc:type
           rdf:resource="http://purl.org/dc/dcmitype/StillImage" /><dc:title /></cc:Work></rdf:RDF></metadata><defs
     id="defs6"><clipPath
       id="clipPath16"><path
         d="M 0,0 540,0 540,780 0,780 0,0 z"
         inkscape:connector-curvature="0"
         id="path18" /></clipPath></defs><g
     transform="matrix(1.25,0,0,-1.25,0,975)"
     id="g10"><g
       id="g12"><g
         clip-path="url(#clipPath16)"
         id="g14"><path
           d="m 231.7,383.9 0,0 -1.1,1.6 -0.9,1.6 -0.9,1.7 -0.8,1.8 -0.7,1.8 -0.5,1.9 -0.4,1.9 -0.3,1.9 -0.2,2.1 -0.1,2 0,2 0.2,2.1 0.3,2.1 0.4,2.1 0.5,2.1 0.6,2.1 0.7,2.2 0.9,2 0.9,2.1 1.1,2.1 1.2,2 1.2,1.9 1.4,2 1.4,1.9 1.6,1.8 1.6,1.8 1.7,1.7 1.8,1.7 1.8,1.5 1.9,1.5 0,0 2,1.5 2,1.3 2.1,1.3 2.2,1.2 2.1,1 2.2,1 2.2,0.9 2.2,0.8 2.3,0.7 2.3,0.6 2.2,0.4 2.3,0.3 2.2,0.3 2.2,0.1 2.2,0 2.2,0 2.1,-0.2 2.1,-0.4 2,-0.3 2.1,-0.6 1.9,-0.6 1.9,-0.7 1.8,-0.9 1.7,-0.9 1.6,-1.1 1.6,-1.1 1.5,-1.2 1.4,-1.3 1.3,-1.4 1.2,-1.5 -0.1,0 1.1,-1.6 1,-1.6 0.9,-1.7 0.8,-1.7 0.6,-1.8 0.6,-1.9 0.4,-1.9 0.3,-2 0.2,-2 0.1,-2 0,-2.1 -0.2,-2.1 -0.3,-2.1 -0.4,-2.1 -0.5,-2.1 -0.6,-2.1 -0.8,-2.1 -0.8,-2.1 -1,-2.1 -1,-2 -1.2,-2 -1.3,-2 -1.3,-1.9 -1.4,-1.9 -1.6,-1.9 -1.6,-1.7 -1.7,-1.7 -1.8,-1.7 -1.9,-1.6 -1.9,-1.5 0,0 -2,-1.4 -2,-1.4 -2.1,-1.2 -2.1,-1.2 -2.2,-1 -2.2,-1 -2.1,-0.9 -2.3,-0.8 -2.2,-0.7 -2.3,-0.6 -2.2,-0.4 -2.3,-0.4 -2.2,-0.2 -2.3,-0.1 -2.2,-0.1 -2.1,0.1 -2.2,0.2 -2,0.3 -2.1,0.4 -2,0.6 -1.9,0.6 -1.9,0.7 -1.8,0.9 -1.7,0.9 -1.7,1 -1.5,1.2 -1.5,1.2 -1.4,1.3 -1.3,1.4 -1.2,1.5 0,-0.1 z"
           inkscape:connector-curvature="0"
           id="path100"
           style="fill:#7030a0;fill-opacity:1;fill-rule:evenodd;stroke:none" /><path
           d="m 232.1,193.4 0,0 -1.1,1.5 -1,1.7 -0.8,1.6 -0.8,1.8 -0.7,1.8 -0.5,1.9 -0.5,1.9 -0.3,2 -0.2,2 -0.1,2 0.1,2.1 0.1,2.1 0.3,2 0.4,2.2 0.5,2.1 0.7,2.1 0.7,2.1 0.8,2 1,2.1 1.1,2.1 1.1,2 1.3,2 1.3,1.9 1.5,1.9 1.5,1.8 1.7,1.8 1.7,1.7 1.7,1.7 1.9,1.6 1.9,1.5 0,0 2,1.4 2,1.4 2.1,1.2 2.1,1.2 2.2,1.1 2.2,0.9 2.2,0.9 2.2,0.8 2.3,0.7 2.2,0.6 2.3,0.4 2.2,0.4 2.3,0.2 2.2,0.1 2.2,0.1 2.1,-0.1 2.2,-0.2 2.1,-0.3 2,-0.4 2,-0.6 2,-0.6 1.8,-0.7 1.8,-0.9 1.8,-0.9 1.6,-1 1.6,-1.2 1.4,-1.2 1.4,-1.3 1.3,-1.4 1.2,-1.4 0,-0.1 1.1,-1.5 1,-1.7 0.9,-1.7 0.7,-1.7 0.7,-1.8 0.5,-1.9 0.5,-1.9 0.3,-1.9 0.2,-2.1 0,-2 0,-2.1 -0.1,-2 -0.3,-2.1 -0.4,-2.1 -0.5,-2.1 -0.7,-2.2 -0.7,-2.1 -0.8,-2.1 -1,-2 -1,-2.1 -1.2,-2 -1.3,-2 -1.3,-1.9 -1.5,-1.9 -1.5,-1.8 -1.7,-1.8 -1.7,-1.7 -1.7,-1.7 -1.9,-1.6 -1.9,-1.5 0,0 -2,-1.4 -2,-1.3 -2.1,-1.3 -2.1,-1.2 -2.2,-1 -2.2,-1 -2.2,-0.9 -2.2,-0.8 -2.3,-0.7 -2.2,-0.5 -2.3,-0.5 -2.2,-0.4 -2.3,-0.2 -2.2,-0.1 -2.2,0 -2.1,0 -2.2,0.2 -2.1,0.3 -2,0.4 -2,0.6 -2,0.6 -1.8,0.7 -1.8,0.9 -1.8,0.9 -1.6,1.1 -1.6,1.1 -1.5,1.2 -1.3,1.3 -1.3,1.4 -1.2,1.5 0,0 z"
           inkscape:connector-curvature="0"
           id="path114"
           style="fill:#fd8c0f;fill-opacity:1;fill-rule:evenodd;stroke:none" /><path
           d="m 232.1,289.2 0,0 -1.1,1.6 -1,1.6 -0.8,1.7 -0.8,1.7 -0.7,1.9 -0.5,1.8 -0.5,1.9 -0.3,2 -0.2,2 -0.1,2.1 0.1,2 0.1,2.1 0.3,2.1 0.4,2.1 0.5,2.1 0.7,2.1 0.7,2.1 0.8,2.1 1,2.1 1.1,2 1.1,2 1.3,2 1.3,1.9 1.5,1.9 1.5,1.9 1.7,1.8 1.7,1.7 1.7,1.6 1.9,1.6 1.9,1.5 0,0 2,1.5 2,1.3 2.1,1.3 2.1,1.1 2.2,1.1 2.2,1 2.2,0.9 2.2,0.7 2.3,0.7 2.2,0.6 2.3,0.5 2.2,0.3 2.3,0.2 2.2,0.2 2.2,0 2.1,-0.1 2.2,-0.2 2.1,-0.3 2,-0.4 2,-0.5 2,-0.6 1.8,-0.8 1.8,-0.8 1.8,-0.9 1.6,-1.1 1.6,-1.1 1.4,-1.2 1.4,-1.3 1.3,-1.4 1.2,-1.5 0,0 1.1,-1.6 1,-1.6 0.9,-1.7 0.7,-1.8 0.7,-1.8 0.5,-1.8 0.5,-2 0.3,-1.9 0.2,-2 0,-2 0,-2.1 -0.1,-2.1 -0.3,-2.1 -0.4,-2.1 -0.5,-2.1 -0.7,-2.1 -0.7,-2.1 -0.8,-2.1 -1,-2.1 -1,-2 -1.2,-2 -1.3,-2 -1.3,-2 -1.5,-1.8 -1.5,-1.9 -1.7,-1.7 -1.7,-1.8 -1.7,-1.7 -1.9,-1.5 -1.9,-1.5 0,0 -2,-1.4 -2,-1.4 -2.1,-1.2 -2.1,-1.2 -2.2,-1.1 -2.2,-1 -2.2,-0.8 -2.2,-0.8 -2.3,-0.7 -2.2,-0.6 -2.3,-0.4 -2.2,-0.4 -2.3,-0.2 -2.2,-0.2 -2.2,0 -2.1,0.1 -2.2,0.2 -2.1,0.3 -2,0.4 -2,0.5 -2,0.6 -1.8,0.8 -1.8,0.8 -1.8,1 -1.6,1 -1.6,1.1 -1.5,1.2 -1.3,1.3 -1.3,1.4 -1.2,1.5 0,0 z"
           inkscape:connector-curvature="0"
           id="path128"
           style="fill:#006666;fill-opacity:1;fill-rule:evenodd;stroke:none" /><path
           d="m 321.5,591 -7.9,0 0,-370.4 7.9,0 0,370.4 z"
           inkscape:connector-curvature="0"
           id="path142"
           style="fill:#000000;fill-opacity:1;fill-rule:evenodd;stroke:none" /><path
           inkscape:connector-curvature="0"
           d="m 105.67881,382.20213 0,-209.15 c 40.48517,7.13533 85.63236,22.59076 86.1,73.225 -0.33145,11.8638 -6.75082,33.60114 -31.2,33.9 -10.62376,0.18558 -20.8206,0.4133 -47.575,-33.225 l 0,135.25 z m 44.75,-117.625 c 18.28548,-0.27865 20.7923,-11.79042 21.69449,-22.03602 0.81544,-39.37643 -29.33991,-51.53313 -58.95,-60.15 l -0.16949,50.33602 c 10.4848,15.64498 24.99238,32.19738 37.425,31.85 z"
           id="path3018"
           style="fill:#000000;stroke:#000000;stroke-width:0.80000001px;stroke-linecap:butt;stroke-linejoin:miter;stroke-opacity:1;display:inline" /><path
           inkscape:connector-curvature="0"
           d="m 122.20424,577.20212 0,-209.15 c 40.48517,7.13533 85.63236,22.59076 86.1,73.225 -0.33146,11.8638 -6.75083,33.60114 -31.2,33.9 -10.62377,0.18558 -20.82061,0.4133 -47.575,-33.225 l 0,135.25 z m 44.75,-117.625 c 18.28548,-0.27865 20.79229,-11.79042 21.69449,-22.03602 0.81544,-39.37643 -29.33992,-51.53313 -58.95,-60.15 l -0.16949,50.33602 c 10.48479,15.64498 24.99237,32.19738 37.425,31.85 z"
           id="path3018-8"
           style="fill:#000000;stroke:#000000;stroke-width:0.80000001px;stroke-linecap:butt;stroke-linejoin:miter;stroke-opacity:1;display:inline" /><path
           inkscape:connector-curvature="0"
           d="m -0.08390322,487.96483 0,-209.15 c 40.48517022,7.13533 85.63236022,22.59076 86.10000022,73.225 -0.33145,11.8638 -6.75083,33.60114 -31.2,33.9 -10.62377,0.18558 -20.82061,0.4133 -47.5750002,-33.225 l 0,135.25 z M 44.666097,370.33983 c 18.28548,-0.27865 20.79229,-11.79042 21.69449,-22.03602 0.81544,-39.37643 -29.33992,-51.53313 -58.9500002,-60.15 l -0.16949,50.33602 c 10.4847902,15.64498 24.9923702,32.19738 37.4250002,31.85 z"
           id="path3018-8-1"
           style="fill:#000000;stroke:#000000;stroke-width:0.80000001px;stroke-linecap:butt;stroke-linejoin:miter;stroke-opacity:1;display:inline" /></g></g></g></svg>