<?xml version="1.0" encoding="UTF-8" standalone="no"?>
<!-- Created with Inkscape (http://www.inkscape.org/) -->

<svg
   xmlns:dc="http://purl.org/dc/elements/1.1/"
   xmlns:cc="http://creativecommons.org/ns#"
   xmlns:rdf="http://www.w3.org/1999/02/22-rdf-syntax-ns#"
   xmlns:svg="http://www.w3.org/2000/svg"
   xmlns="http://www.w3.org/2000/svg"
   xmlns:sodipodi="http://sodipodi.sourceforge.net/DTD/sodipodi-0.dtd"
   xmlns:inkscape="http://www.inkscape.org/namespaces/inkscape"
   version="1.1"
   width="675"
   height="975"
   id="svg2"
   xml:space="preserve"
   inkscape:version="0.48.4 r9939"
   sodipodi:docname="bw-Fis-1x8.svg"><sodipodi:namedview
     pagecolor="#ffffff"
     bordercolor="#666666"
     borderopacity="1"
     objecttolerance="10"
     gridtolerance="10"
     guidetolerance="10"
     inkscape:pageopacity="0"
     inkscape:pageshadow="2"
     inkscape:window-width="1680"
     inkscape:window-height="996"
     id="namedview68"
     showgrid="false"
     inkscape:zoom="0.48410256"
     inkscape:cx="348.54424"
     inkscape:cy="1005.7481"
     inkscape:window-x="-4"
     inkscape:window-y="-4"
     inkscape:window-maximized="1"
     inkscape:current-layer="svg2" /><metadata
     id="metadata8"><rdf:RDF><cc:Work
         rdf:about=""><dc:format>image/svg+xml</dc:format><dc:type
           rdf:resource="http://purl.org/dc/dcmitype/StillImage" /></cc:Work></rdf:RDF></metadata><defs
     id="defs6"><clipPath
       id="clipPath16"><path
         d="M 0,0 540,0 540,780 0,780 0,0 z"
         inkscape:connector-curvature="0"
         id="path18" /></clipPath></defs><path
     style="fill:#009900;fill-opacity:1;fill-rule:evenodd;stroke:none"
     id="path94"
     inkscape:connector-curvature="0"
     d="m 299.5,665.75 0,0 -1.375,-2 -1.25,-2 -1.125,-2.125 -0.875,-2.25 -0.875,-2.25 -0.625,-2.25 -0.625,-2.375 -0.375,-2.5 -0.25,-2.5 -0.125,-2.625 0.125,-2.5 0.125,-2.625 0.375,-2.625 0.5,-2.625 0.625,-2.625 0.75,-2.625 1,-2.625 1,-2.625 1.25,-2.625 1.25,-2.5 1.5,-2.625 1.625,-2.375 1.625,-2.375 1.875,-2.375 1.875,-2.375 2,-2.25 2.125,-2.125 2.25,-2 2.375,-2 2.375,-1.875 0,0 2.5,-1.875 2.5,-1.625 2.625,-1.625 2.625,-1.375 2.625,-1.375 2.75,-1.25 2.875,-1.125 2.75,-1 2.75,-0.75 2.875,-0.75 2.75,-0.625 2.875,-0.375 2.875,-0.375 2.75,-0.125 2.75,0 2.625,0.125 2.75,0.25 2.625,0.375 2.5,0.5 2.5,0.625 2.375,0.75 2.375,1 2.25,1 2.125,1.125 2.125,1.375 2,1.375 1.75,1.5 1.75,1.625 1.625,1.75 1.5,1.875 0,0 1.375,2 1.25,2 1.125,2.125 0.875,2.25 0.875,2.25 0.625,2.25 0.5,2.375 0.375,2.5 0.25,2.5 0.125,2.5 0,2.625 -0.25,2.625 -0.25,2.625 -0.5,2.625 -0.75,2.625 -0.75,2.625 -0.875,2.625 -1,2.625 -1.25,2.625 -1.375,2.5 -1.375,2.5 -1.625,2.5 -1.625,2.375 -1.875,2.375 -2,2.375 -2,2.125 -2.125,2.25 -2.25,2 -2.25,2 -2.375,1.875 0,0 -2.5,1.75 -2.625,1.75 -2.5,1.5 -2.625,1.5 -2.75,1.375 -2.75,1.25 -2.75,1 -2.75,1 -2.875,0.875 -2.75,0.75 -2.875,0.5 -2.75,0.5 -2.875,0.25 -2.75,0.125 -2.75,0.125 -2.75,-0.125 -2.625,-0.25 -2.625,-0.375 -2.625,-0.5 -2.375,-0.625 -2.5,-0.875 -2.25,-0.875 -2.375,-1.125 -2.125,-1.125 -2,-1.25 -2,-1.375 -1.875,-1.625 -1.625,-1.625 -1.75,-1.75 -1.375,-1.875 0,0.125 z" /><path
     style="fill:#009900;fill-opacity:1;fill-rule:evenodd;stroke:none"
     id="path108"
     inkscape:connector-curvature="0"
     d="m 389.375,293.625 11.375,0 0,328.5 -11.375,0 0,-328.5 z" /><path
     style="fill:#009900;fill-opacity:1;fill-rule:evenodd;stroke:none"
     id="path122"
     inkscape:connector-curvature="0"
     d="M 510.25,387.375 C 505,311.5 394,339.625 388.625,263.75 l -1.25,62.125 c 5.375,75.875 116.375,47.75 121.625,123.5 l 1.25,-62 z" /><g
     transform="matrix(1.25,0,0,-1.25,93.840387,1218.3522)"
     id="g24"><text
   transform="matrix(1,0,0,-1,57.2,415.4)"
   id="text26"><tspan
     x="0"
     y="0"
     id="tspan28"
     style="font-size:131.30000305px;font-variant:normal;font-weight:normal;writing-mode:lr-tb;fill:#000000;fill-opacity:1;fill-rule:nonzero;stroke:none;font-family:OpenSymbol;-inkscape-font-specification:OpenSymbol">#</tspan></text>


</g></svg>