<?xml version="1.0" encoding="UTF-8" standalone="no"?>
<!-- Created with Inkscape (http://www.inkscape.org/) -->

<svg
   xmlns:dc="http://purl.org/dc/elements/1.1/"
   xmlns:cc="http://creativecommons.org/ns#"
   xmlns:rdf="http://www.w3.org/1999/02/22-rdf-syntax-ns#"
   xmlns:svg="http://www.w3.org/2000/svg"
   xmlns="http://www.w3.org/2000/svg"
   xmlns:sodipodi="http://sodipodi.sourceforge.net/DTD/sodipodi-0.dtd"
   xmlns:inkscape="http://www.inkscape.org/namespaces/inkscape"
   version="1.1"
   width="675"
   height="975"
   id="svg2"
   xml:space="preserve"
   inkscape:version="0.48.4 r9939"
   sodipodi:docname="rust-8-punt.svg"><sodipodi:namedview
     pagecolor="#ffffff"
     bordercolor="#666666"
     borderopacity="1"
     objecttolerance="10"
     gridtolerance="10"
     guidetolerance="10"
     inkscape:pageopacity="0"
     inkscape:pageshadow="2"
     inkscape:window-width="1680"
     inkscape:window-height="996"
     id="namedview34"
     showgrid="false"
     inkscape:zoom="2.7384976"
     inkscape:cx="358.64927"
     inkscape:cy="614.31263"
     inkscape:window-x="-4"
     inkscape:window-y="-4"
     inkscape:window-maximized="1"
     inkscape:current-layer="svg2" /><metadata
     id="metadata8"><rdf:RDF><cc:Work
         rdf:about=""><dc:format>image/svg+xml</dc:format><dc:type
           rdf:resource="http://purl.org/dc/dcmitype/StillImage" /><dc:title /></cc:Work></rdf:RDF></metadata><defs
     id="defs6"><clipPath
       id="clipPath16"><path
         d="M 0,0 540,0 540,780 0,780 0,0 z"
         inkscape:connector-curvature="0"
         id="path18" /></clipPath></defs><path
     style="fill:#000000;fill-opacity:1;fill-rule:evenodd;stroke:none"
     id="path26"
     inkscape:connector-curvature="0"
     d="m 425.25,259 13.125,4.5 L 290,684.625 277,680.125 425.25,259 z" /><path
     style="fill:#000000;fill-opacity:1;fill-rule:evenodd;stroke:none"
     id="path40"
     inkscape:connector-curvature="0"
     d="m 248.875,248.75 0,0 0.125,-1.75 0.125,-1.875 0.25,-1.75 0.5,-1.75 0.5,-1.75 0.625,-1.75 0.75,-1.75 0.875,-1.625 1,-1.625 1.125,-1.625 1.125,-1.5 1.25,-1.5 1.5,-1.5 1.375,-1.375 1.625,-1.25 1.625,-1.25 1.75,-1.25 1.75,-1 2,-1.125 1.875,-0.875 2,-0.875 2,-0.75 2.125,-0.75 2.125,-0.625 2.25,-0.5 2.25,-0.5 2.25,-0.25 2.25,-0.25 2.25,-0.125 2.25,0 0,0 2.25,0 2.25,0.125 2.375,0.25 2.125,0.25 2.25,0.5 2.25,0.5 2.125,0.625 2.125,0.625 2,0.875 2,0.875 2,0.875 1.875,1 1.75,1.125 1.75,1.125 1.625,1.375 1.625,1.25 1.5,1.375 1.375,1.375 1.25,1.5 1.125,1.625 1.125,1.5 1,1.625 0.875,1.75 0.75,1.75 0.625,1.625 0.625,1.75 0.375,1.875 0.25,1.75 0.25,1.75 0,1.875 0,0 0,1.75 -0.25,1.875 -0.25,1.75 -0.375,1.75 -0.625,1.875 -0.625,1.75 -0.75,1.625 -0.875,1.625 -1,1.625 L 330,266 l -1.125,1.625 -1.25,1.5 -1.375,1.375 -1.5,1.375 -1.625,1.375 -1.625,1.125 -1.75,1.25 -1.75,1.125 -1.875,1 -2,0.875 -2,1 -2,0.75 L 308,281 l -2.125,0.625 -2.25,0.5 -2.25,0.5 -2.25,0.25 -2.25,0.25 -2.25,0.125 -2.25,0.125 0,0 -2.25,-0.125 -2.25,-0.125 -2.375,-0.25 -2.25,-0.25 -2.125,-0.5 -2.25,-0.5 -2.125,-0.625 -2.125,-0.625 -2,-0.75 -2,-1 -2,-0.875 -1.875,-1 -1.75,-1.125 -1.75,-1.25 -1.625,-1.125 -1.625,-1.375 -1.5,-1.375 -1.375,-1.375 -1.25,-1.5 -1.25,-1.625 -1.125,-1.625 -0.875,-1.625 -0.875,-1.625 -0.875,-1.625 -0.625,-1.75 -0.5,-1.875 -0.375,-1.75 -0.375,-1.75 -0.125,-1.875 -0.125,-1.75 0.125,0 z" /><path
     style="fill:#000000;fill-opacity:1;fill-rule:evenodd;stroke:none"
     id="path54"
     inkscape:connector-curvature="0"
     d="m 436,262.125 0,0 -0.125,1.125 -0.125,1.125 -0.375,1 -0.625,1.125 -0.875,1.125 -1,1.125 -1.25,1.125 -1.25,1.125 -1.625,1.125 -1.75,1 -2,1.125 -2.125,1.125 -2.25,1 -2.375,1 -2.625,1 -2.75,1 -2.875,0.875 -3,0.875 -3.125,1 -3.25,0.75 -3.375,0.875 -3.5,0.75 -3.625,0.75 -3.625,0.625 -3.75,0.625 -3.875,0.625 -3.875,0.5 -3.875,0.5 -3.875,0.5 -4,0.375 -4,0.375 -4.125,0.25 -4,0.25 -4,0.125 -3.875,0.25 -4,0 -3.875,0 -3.875,0 -3.875,-0.125 L 324,290 l -3.625,-0.25 -3.625,-0.25 -3.5,-0.25 -3.375,-0.375 -3.25,-0.5 -3.125,-0.5 -3,-0.5 -2.75,-0.5 -2.75,-0.625 -2.625,-0.75 -2.375,-0.625 -2.25,-0.75 -2,-0.75 -1.875,-0.875 -1.75,-0.875 -1.625,-0.875 -1.25,-0.875 -1.25,-1 -1,-1 -0.75,-1 -0.5,-1 -0.375,-1.125 -0.25,-1 10.875,-0.875 0,0 0.125,0.5 0.25,0.5 0.5,0.625 0.625,0.5 0.75,0.375 1,0.5 1.125,0.375 1.25,0.5 1.5,0.375 1.625,0.375 1.75,0.25 1.875,0.375 2.125,0.25 2.125,0.25 2.375,0.25 2.5,0.25 2.5,0.25 2.75,0.125 2.75,0.125 2.875,0.125 3,0 3,0.125 3.125,0 3.25,0 3.25,-0.125 3.375,-0.125 3.375,0 3.375,-0.25 3.5,-0.125 3.375,-0.125 3.5,-0.25 3.5,-0.25 3.5,-0.25 3.375,-0.375 3.5,-0.25 3.375,-0.375 3.375,-0.375 3.25,-0.375 3.25,-0.5 3.25,-0.375 3.125,-0.5 3,-0.5 3,-0.5 2.875,-0.5 2.625,-0.5 2.75,-0.5 2.5,-0.5 2.375,-0.625 2.25,-0.5 2.125,-0.625 2,-0.625 1.875,-0.625 1.75,-0.5 1.5,-0.625 1.375,-0.625 1.25,-0.625 1.125,-0.5 0.875,-0.625 0.75,-0.625 0.5,-0.5 0.375,-0.625 0.25,-0.5 0.125,-0.5 10.75,-0.875 z" /><path
     d="m 443.92479,450.3178 0,0 0,-1.75 0.125,-1.625 0.25,-1.625 0.375,-1.625 0.375,-1.625 0.625,-1.625 0.5,-1.625 0.75,-1.5 0.875,-1.5 0.875,-1.5 0.875,-1.375 1.125,-1.375 1.125,-1.375 1.25,-1.25 1.25,-1.25 1.25,-1.125 1.5,-1 1.375,-1.125 1.625,-0.875 1.5,-0.875 1.625,-0.875 1.75,-0.625 1.625,-0.625 1.75,-0.625 1.75,-0.5 1.875,-0.375 1.875,-0.25 1.75,-0.25 1.875,-0.125 1.875,0 0,0 1.875,0 1.75,0.125 1.875,0.25 1.875,0.25 1.75,0.375 1.75,0.5 1.75,0.625 1.75,0.625 1.625,0.625 1.625,0.875 1.625,0.875 1.5,0.875 1.5,1 1.375,1.125 1.375,1.125 1.25,1.25 1.25,1.25 1.125,1.375 1,1.375 1,1.375 0.875,1.5 0.75,1.5 0.75,1.5 0.625,1.625 0.5,1.5 0.5,1.625 0.375,1.625 0.125,1.75 0.25,1.625 0,1.625 0,0 0,1.75 -0.125,1.625 -0.25,1.625 -0.375,1.625 -0.5,1.625 -0.5,1.625 -0.625,1.625 -0.625,1.5 -0.875,1.5 -0.875,1.5 -1,1.375 -1,1.375 -1.125,1.375 -1.25,1.25 -1.25,1.25 -1.375,1.125 -1.375,1.125 -1.5,1 -1.5,0.875 -1.625,0.875 -1.625,0.875 -1.625,0.625 -1.75,0.75 -1.75,0.5 -1.75,0.5 -1.75,0.375 -1.875,0.25 -1.875,0.25 -1.875,0.125 -1.75,0.125 0,0 -1.875,-0.125 -1.875,-0.125 -1.875,-0.25 -1.75,-0.25 -1.875,-0.375 -1.75,-0.5 -1.75,-0.5 -1.75,-0.75 -1.625,-0.625 -1.625,-0.875 -1.625,-0.875 -1.5,-0.875 -1.5,-1 -1.375,-1.125 -1.375,-1.125 -1.25,-1.25 -1.25,-1.25 -1.125,-1.375 -1,-1.375 -1,-1.375 -0.875,-1.5 -0.875,-1.5 -0.625,-1.5 -0.625,-1.625 -0.5,-1.625 -0.5,-1.625 -0.25,-1.625 -0.25,-1.625 -0.25,-1.625 0,-1.75 0.125,0.125 z"
     inkscape:connector-curvature="0"
     id="path98"
     style="fill:#000000;fill-opacity:1;fill-rule:evenodd;stroke:none" /></svg>