<?xml version="1.0" encoding="UTF-8" standalone="no"?>
<!-- Created with Inkscape (http://www.inkscape.org/) -->

<svg
   xmlns:dc="http://purl.org/dc/elements/1.1/"
   xmlns:cc="http://creativecommons.org/ns#"
   xmlns:rdf="http://www.w3.org/1999/02/22-rdf-syntax-ns#"
   xmlns:svg="http://www.w3.org/2000/svg"
   xmlns="http://www.w3.org/2000/svg"
   xmlns:sodipodi="http://sodipodi.sourceforge.net/DTD/sodipodi-0.dtd"
   xmlns:inkscape="http://www.inkscape.org/namespaces/inkscape"
   version="1.1"
   width="675"
   height="975"
   id="svg2"
   xml:space="preserve"
   inkscape:version="0.48.4 r9939"
   sodipodi:docname="rust-8.svg"><sodipodi:namedview
     pagecolor="#ffffff"
     bordercolor="#666666"
     borderopacity="1"
     objecttolerance="10"
     gridtolerance="10"
     guidetolerance="10"
     inkscape:pageopacity="0"
     inkscape:pageshadow="2"
     inkscape:window-width="1680"
     inkscape:window-height="996"
     id="namedview3227"
     showgrid="false"
     inkscape:zoom="0.96820513"
     inkscape:cx="543.21388"
     inkscape:cy="543.5288"
     inkscape:window-x="-4"
     inkscape:window-y="-4"
     inkscape:window-maximized="1"
     inkscape:current-layer="g14" /><metadata
     id="metadata8"><rdf:RDF><cc:Work
         rdf:about=""><dc:format>image/svg+xml</dc:format><dc:type
           rdf:resource="http://purl.org/dc/dcmitype/StillImage" /></cc:Work></rdf:RDF></metadata><defs
     id="defs6"><clipPath
       id="clipPath16"><path
         d="M 0,0 540,0 540,780 0,780 0,0 z"
         inkscape:connector-curvature="0"
         id="path18" /></clipPath></defs><g
     transform="matrix(1.25,0,0,-1.25,0,975)"
     id="g10"><g
       id="g12"><g
         clip-path="url(#clipPath16)"
         id="g14"><path
           d="M 340.2,572.8 350.7,569.2 232,232.3 221.6,235.9 340.2,572.8 z"
           inkscape:connector-curvature="0"
           id="path26"
           style="fill:#000000;fill-opacity:1;fill-rule:evenodd;stroke:none" /><path
           d="m 199.1,581 0,0 0.1,1.4 0.1,1.5 0.2,1.4 0.4,1.4 0.4,1.4 0.5,1.4 0.6,1.4 0.7,1.3 0.8,1.3 0.9,1.3 0.9,1.2 1,1.2 1.2,1.2 1.1,1.1 1.3,1 1.3,1 1.4,1 1.4,0.8 1.6,0.9 1.5,0.7 1.6,0.7 1.6,0.6 1.7,0.6 1.7,0.5 1.8,0.4 1.8,0.4 1.8,0.2 1.8,0.2 1.8,0.1 1.8,0 0,0 1.8,0 1.8,-0.1 1.9,-0.2 1.7,-0.2 1.8,-0.4 1.8,-0.4 1.7,-0.5 1.7,-0.5 1.6,-0.7 1.6,-0.7 1.6,-0.7 1.5,-0.8 1.4,-0.9 1.4,-0.9 1.3,-1.1 1.3,-1 1.2,-1.1 1.1,-1.1 1,-1.2 0.9,-1.3 0.9,-1.2 0.8,-1.3 0.7,-1.4 0.6,-1.4 0.5,-1.3 0.5,-1.4 0.3,-1.5 0.2,-1.4 0.2,-1.4 0,-1.5 0,0 0,-1.4 -0.2,-1.5 -0.2,-1.4 -0.3,-1.4 -0.5,-1.5 -0.5,-1.4 -0.6,-1.3 -0.7,-1.3 -0.8,-1.3 -0.9,-1.3 -0.9,-1.3 -1,-1.2 -1.1,-1.1 -1.2,-1.1 -1.3,-1.1 -1.3,-0.9 -1.4,-1 -1.4,-0.9 -1.5,-0.8 -1.6,-0.7 -1.6,-0.8 -1.6,-0.6 -1.7,-0.5 -1.7,-0.5 -1.8,-0.4 -1.8,-0.4 -1.8,-0.2 -1.8,-0.2 -1.8,-0.1 -1.8,-0.1 0,0 -1.8,0.1 -1.8,0.1 -1.9,0.2 -1.8,0.2 -1.7,0.4 -1.8,0.4 -1.7,0.5 -1.7,0.5 -1.6,0.6 -1.6,0.8 -1.6,0.7 -1.5,0.8 -1.4,0.9 -1.4,1 -1.3,0.9 -1.3,1.1 -1.2,1.1 -1.1,1.1 -1,1.2 -1,1.3 -0.9,1.3 -0.7,1.3 -0.7,1.3 -0.7,1.3 -0.5,1.4 -0.4,1.5 -0.3,1.4 -0.3,1.4 -0.1,1.5 -0.1,1.4 0.1,0 z"
           inkscape:connector-curvature="0"
           id="path40"
           style="fill:#000000;fill-opacity:1;fill-rule:evenodd;stroke:none" /><path
           d="m 348.8,570.3 0,0 -0.1,-0.9 -0.1,-0.9 -0.3,-0.8 -0.5,-0.9 -0.7,-0.9 -0.8,-0.9 -1,-0.9 -1,-0.9 -1.3,-0.9 -1.4,-0.8 -1.6,-0.9 -1.7,-0.9 -1.8,-0.8 -1.9,-0.8 -2.1,-0.8 -2.2,-0.8 -2.3,-0.7 -2.4,-0.7 -2.5,-0.8 -2.6,-0.6 -2.7,-0.7 -2.8,-0.6 -2.9,-0.6 -2.9,-0.5 -3,-0.5 -3.1,-0.5 -3.1,-0.4 -3.1,-0.4 -3.1,-0.4 -3.2,-0.3 -3.2,-0.3 -3.3,-0.2 -3.2,-0.2 -3.2,-0.1 -3.1,-0.2 -3.2,0 -3.1,0 -3.1,0 -3.1,0.1 -2.9,0.1 -2.9,0.2 -2.9,0.2 -2.8,0.2 -2.7,0.3 -2.6,0.4 -2.5,0.4 -2.4,0.4 -2.2,0.4 -2.2,0.5 -2.1,0.6 -1.9,0.5 -1.8,0.6 -1.6,0.6 -1.5,0.7 -1.4,0.7 -1.3,0.7 -1,0.7 -1,0.8 -0.8,0.8 -0.6,0.8 -0.4,0.8 -0.3,0.9 -0.2,0.8 8.7,0.7 0,0 0.1,-0.4 0.2,-0.4 0.4,-0.5 0.5,-0.4 0.6,-0.3 0.8,-0.4 0.9,-0.3 1,-0.4 1.2,-0.3 1.3,-0.3 1.4,-0.2 1.5,-0.3 1.7,-0.2 1.7,-0.2 1.9,-0.2 2,-0.2 2,-0.2 2.2,-0.1 2.2,-0.1 2.3,-0.1 2.4,0 2.4,-0.1 2.5,0 2.6,0 2.6,0.1 2.7,0.1 2.7,0 2.7,0.2 2.8,0.1 2.7,0.1 2.8,0.2 2.8,0.2 2.8,0.2 2.7,0.3 2.8,0.2 2.7,0.3 2.7,0.3 2.6,0.3 2.6,0.4 2.6,0.3 2.5,0.4 2.4,0.4 2.4,0.4 2.3,0.4 2.1,0.4 2.2,0.4 2,0.4 1.9,0.5 1.8,0.4 1.7,0.5 1.6,0.5 1.5,0.5 1.4,0.4 1.2,0.5 1.1,0.5 1,0.5 0.9,0.4 0.7,0.5 0.6,0.5 0.4,0.4 0.3,0.5 0.2,0.4 0.1,0.4 8.6,0.7 z"
           inkscape:connector-curvature="0"
           id="path54"
           style="fill:#000000;fill-opacity:1;fill-rule:evenodd;stroke:none" /></g></g></g></svg>