<?xml version="1.0" encoding="UTF-8" standalone="no"?>
<!-- Created with Inkscape (http://www.inkscape.org/) -->

<svg
   xmlns:dc="http://purl.org/dc/elements/1.1/"
   xmlns:cc="http://creativecommons.org/ns#"
   xmlns:rdf="http://www.w3.org/1999/02/22-rdf-syntax-ns#"
   xmlns:svg="http://www.w3.org/2000/svg"
   xmlns="http://www.w3.org/2000/svg"
   xmlns:sodipodi="http://sodipodi.sourceforge.net/DTD/sodipodi-0.dtd"
   xmlns:inkscape="http://www.inkscape.org/namespaces/inkscape"
   version="1.1"
   width="675"
   height="900"
   id="svg2"
   xml:space="preserve"
   inkscape:version="0.48.4 r9939"
   sodipodi:docname="rust-kwart.svg"><sodipodi:namedview
     pagecolor="#ffffff"
     bordercolor="#666666"
     borderopacity="1"
     objecttolerance="10"
     gridtolerance="10"
     guidetolerance="10"
     inkscape:pageopacity="0"
     inkscape:pageshadow="2"
     inkscape:window-width="1680"
     inkscape:window-height="996"
     id="namedview3028"
     showgrid="false"
     inkscape:zoom="0.74167645"
     inkscape:cx="610.25536"
     inkscape:cy="435.70732"
     inkscape:window-x="-4"
     inkscape:window-y="-4"
     inkscape:window-maximized="1"
     inkscape:current-layer="svg2" /><metadata
     id="metadata8"><rdf:RDF><cc:Work
         rdf:about=""><dc:format>image/svg+xml</dc:format><dc:type
           rdf:resource="http://purl.org/dc/dcmitype/StillImage" /></cc:Work></rdf:RDF></metadata><defs
     id="defs6"><clipPath
       id="clipPath16"><path
         d="M 0,0 540,0 540,720 0,720 0,0 z"
         inkscape:connector-curvature="0"
         id="path18" /></clipPath></defs><g
     id="g3011"><path
       style="fill:#fdfdfd"
       d="m 236.125,418.0625 0,-258.6875 89.75,0 89.75,0 0,258.6875 0,258.6875 -89.75,0 -89.75,0 0,-258.6875 z"
       id="path3027"
       inkscape:connector-curvature="0" /><path
       style="fill:#d1d1d1"
       d="m 305.40609,651.87707 c -23.07358,-4.34214 -44.09669,-19.34799 -54.36489,-38.80453 -5.50261,-10.42654 -8.00779,-22.05198 -7.43958,-34.52379 0.45397,-9.96414 2.19166,-17.26821 6.04245,-25.39842 4.06591,-8.58438 7.6489,-13.63069 14.56824,-20.51797 6.82268,-6.79108 11.59239,-10.23084 20.03724,-14.45023 17.8307,-8.90893 40.65592,-10.87438 59.21105,-5.09859 2.31851,0.7217 4.32769,1.19996 4.46484,1.06279 0.13714,-0.13717 -21.55504,-26.68643 -48.20485,-58.99838 -26.64981,-32.31193 -48.60798,-59.14978 -48.79594,-59.63967 -0.22737,-0.59259 1.41788,-1.77553 4.916,-3.53459 10.43163,-5.24564 28.6631,-18.89557 35.60517,-26.65767 11.93327,-13.34288 18.82613,-23.29532 24.7292,-35.70596 21.93667,-46.11971 15.85576,-99.50979 -15.92882,-139.85431 -2.47976,-3.14758 -4.50865,-5.90504 -4.50865,-6.12768 0,-0.22264 0.39127,-0.4048 0.86949,-0.4048 0.93619,0 0.54816,-0.41525 63.73361,68.20404 52.88716,57.43537 55.51294,60.31584 55.20463,60.55915 -0.1383,0.10913 -2.895,1.5896 -6.12599,3.28991 -3.231,1.70031 -8.74516,4.98379 -12.25369,7.29663 -6.33872,4.1785 -19.48436,15.09437 -22.55755,18.73131 -0.88354,1.04561 -3.49316,3.9513 -5.79915,6.45708 -5.11961,5.56315 -14.24526,19.17137 -18.26826,27.24173 -9.26442,18.58493 -13.7166,37.78341 -13.72966,59.20443 -0.0138,22.68403 4.18193,40.3987 14.37679,60.69938 6.41615,12.77627 13.90593,22.8069 25.93938,34.73915 4.93848,4.89695 8.39276,8.66741 7.67618,8.37882 -13.26851,-5.34377 -16.82048,-6.02273 -31.44032,-6.00991 -11.3298,0.01 -12.75021,0.14866 -18.83904,1.83992 -23.13949,6.42732 -40.33395,22.17314 -46.83966,42.89337 -1.34729,4.29103 -1.55101,6.28853 -1.55101,15.20787 0,8.89641 0.20648,10.93167 1.54574,15.23639 6.3721,20.48155 23.4683,36.57431 45.12806,42.47931 5.47096,1.49152 5.55154,1.54245 3.31181,2.09299 -4.4547,1.09499 -25.08985,1.1704 -30.71282,0.11223 z"
       id="path3025"
       inkscape:connector-curvature="0" /><path
       style="fill:#afafaf"
       d="m 306.00415,651.83679 c -15.17198,-2.70875 -29.53401,-9.89275 -40.38357,-20.20017 -6.93448,-6.58798 -11.05186,-12.21256 -15.22672,-20.80059 -4.42275,-9.09795 -6.31851,-16.3475 -6.7974,-25.99388 -0.97424,-19.62447 6.05385,-37.5391 20.38127,-51.95196 11.46526,-11.53363 26.74106,-19.24876 43.68233,-22.062 11.18852,-1.85795 28.77716,-0.40975 38.86376,3.19995 2.65506,0.95016 2.07613,0.15469 -14.55274,-19.9963 -20.57337,-24.93097 -71.90505,-87.19187 -77.52392,-94.02983 -2.17451,-2.6463 -3.83336,-4.90925 -3.68634,-5.0288 0.14703,-0.11954 2.65182,-1.51159 5.56621,-3.09345 13.40691,-7.27693 22.36489,-14.02055 33.8201,-25.45996 20.5123,-20.48399 33.12007,-45.35453 37.84015,-74.64484 1.65107,-10.24558 1.49121,-29.55023 -0.33386,-40.31913 -4.00769,-23.64756 -12.99532,-43.81145 -27.81642,-62.40658 -2.49271,-3.12746 -3.79126,-5.27583 -3.35273,-5.5469 0.8746,-0.54061 -4.97651,-6.74997 50.29979,53.37953 25.623,27.87267 51.63155,56.13044 57.79678,62.79505 6.16523,6.66461 11.09779,12.2194 10.96125,12.34397 -0.13655,0.12458 -2.70455,1.45551 -5.70665,2.95764 -23.87531,11.94617 -46.09333,34.16268 -58.49492,58.49093 -10.36285,20.32883 -14.69522,38.37267 -14.6833,61.15433 0.0193,36.88236 13.96951,69.60261 40.68715,95.43173 l 8.24465,7.97047 -7.33671,-2.49067 c -4.0352,-1.36987 -9.57219,-2.83515 -12.30443,-3.25618 -7.34568,-1.13193 -24.18639,-0.42993 -30.59233,1.27523 -20.16542,5.36773 -35.99514,17.60663 -44.08671,34.08607 -3.33589,6.79393 -4.63421,11.30472 -5.40867,18.79141 -1.80229,17.42274 4.67785,34.43086 17.85502,46.86322 8.04735,7.5925 15.98081,12.22149 27.28622,15.92089 l 6.56892,2.14951 -4.65053,0.76812 c -6.22623,1.02839 -20.36649,0.87245 -26.91565,-0.29681 z"
       id="path3023"
       inkscape:connector-curvature="0" /><path
       style="fill:#8e8e8e"
       d="m 306.66651,651.85001 c -28.71224,-5.05453 -51.475,-23.99791 -59.90654,-49.85478 -10.48503,-32.15427 4.87123,-66.96609 36.70703,-83.2129 18.56172,-9.47263 41.17012,-11.44626 60.59454,-5.28971 2.71661,0.86104 4.98909,1.50305 5.04994,1.42669 0.0609,-0.0764 -17.60368,-21.60226 -39.25452,-47.83536 -59.4583,-72.04225 -59.5002,-72.09385 -58.74663,-72.34508 2.13509,-0.71179 16.6414,-9.4383 21.6265,-13.00978 6.95552,-4.98314 18.91859,-16.0314 24.83417,-22.9351 2.35137,-2.74414 6.62688,-8.5335 9.50114,-12.86525 23.66786,-35.6695 28.82454,-79.67396 14.02077,-119.64609 -4.71202,-12.72307 -12.39697,-26.34917 -20.63268,-36.58358 -2.70442,-3.36074 -4.36208,-5.95805 -3.96085,-6.20606 0.37951,-0.23458 1.06491,-0.0186 1.52312,0.47994 0.45821,0.49855 18.22441,19.83602 39.48044,42.97215 21.25604,23.13614 43.74394,47.58062 49.97311,54.32107 23.1209,25.0186 27.48642,29.83434 27.47945,30.31341 -0.004,0.26983 -2.28771,1.68302 -5.07508,3.14041 -20.24411,10.58479 -38.64694,27.19241 -51.30108,46.29662 -28.47427,42.98818 -29.6709,97.77511 -3.1019,142.01941 6.51304,10.8459 16.05465,22.33226 25.85206,31.12119 2.13232,1.91283 3.75213,3.47787 3.59958,3.47787 -0.15255,0 -2.3247,-0.77072 -4.82702,-1.71272 -23.04198,-8.67416 -50.84766,-4.8665 -70.25263,9.62025 -30.02466,22.41489 -32.79804,62.47674 -6.07953,87.81967 7.9581,7.54839 15.90672,12.22291 27.07187,15.92078 l 6.2915,2.08372 -5.15942,0.76748 c -6.80345,1.01202 -18.70311,0.87837 -25.30734,-0.28425 z"
       id="path3021"
       inkscape:connector-curvature="0" /><path
       style="fill:#707070"
       d="m 308.74282,652.17278 c -30.15669,-4.40433 -54.69785,-25.06749 -62.73032,-52.81768 -2.16591,-7.48267 -2.91081,-16.49821 -2.02272,-24.48102 1.02485,-9.21209 2.64629,-14.85408 6.60887,-22.99628 16.01235,-32.90178 55.62548,-49.33507 92.82601,-38.50836 3.09493,0.90074 5.67643,1.58671 5.73666,1.52438 0.0602,-0.0623 -22.09724,-27.03921 -49.23882,-59.94863 -27.14158,-32.90942 -49.24618,-59.92697 -49.12134,-60.039 0.12484,-0.11204 2.15515,-1.1706 4.5118,-2.35235 12.70714,-6.37205 25.34103,-15.93253 36.96327,-27.97133 34.4042,-35.63727 46.12776,-88.13327 30.13882,-134.95619 -5.11428,-14.97698 -14.78199,-32.0701 -24.20782,-42.80099 -1.37392,-1.56414 -2.2223,-3.01433 -1.8853,-3.22263 0.7217,-0.4461 5.03357,4.13019 52.07313,55.26654 19.60679,21.31439 42.06203,45.71114 49.90053,54.215 14.66625,15.91119 16.99179,18.56839 16.57697,18.94113 -0.13261,0.11916 -1.88045,1.04026 -3.88409,2.04689 -20.9681,10.53438 -42.28489,30.13367 -54.90071,50.47734 -23.74533,38.29056 -26.27955,86.59991 -6.67688,127.27986 7.07692,14.68619 15.06633,25.71556 27.86793,38.47163 l 7.2974,7.27145 -5.17441,-1.88348 c -15.90261,-5.78851 -35.11127,-5.86933 -50.87735,-0.21405 -20.96877,7.52148 -36.1891,23.26334 -41.47957,42.90087 -2.07758,7.71173 -2.0888,19.80313 -0.0255,27.4559 5.48161,20.33101 22.21557,36.80192 44.47579,43.77669 l 5.62022,1.76097 -5.1505,0.76614 c -5.82759,0.86687 -17.41424,0.88542 -23.22211,0.0372 z"
       id="path3019"
       inkscape:connector-curvature="0" /><path
       style="fill:#4e4e4e"
       d="m 307.83509,651.86738 c -23.22529,-3.38654 -44.32225,-17.59818 -55.50172,-37.38787 -10.76211,-19.05086 -11.50885,-42.10796 -2.00602,-61.93926 15.55987,-32.4716 53.83478,-49.22882 90.78197,-39.74542 3.27869,0.84156 6.55738,1.75768 7.28598,2.03582 1.23868,0.47288 1.2565,0.42314 0.27432,-0.76589 -0.57773,-0.6994 -7.42279,-9.02231 -15.21126,-18.49538 -7.78847,-9.47306 -29.61373,-35.96167 -48.50057,-58.86357 -18.88684,-22.90191 -34.24745,-41.70083 -34.13468,-41.77537 0.11276,-0.0745 2.4405,-1.27945 5.17274,-2.67756 15.98017,-8.17721 34.57473,-23.78996 45.79127,-38.44822 34.98822,-45.72413 37.07763,-108.09679 5.20353,-155.33495 -2.09342,-3.10249 -5.33273,-7.54203 -7.19848,-9.86565 -3.05947,-3.8103 -3.9609,-5.38079 -3.08845,-5.38079 0.1671,0 13.9525,14.81506 30.63423,32.92234 16.68172,18.10729 43.22162,46.91424 58.97755,64.01545 15.75593,17.1012 28.64579,31.27671 28.64414,31.50111 -10e-4,0.22441 -2.50939,1.68827 -5.57276,3.25304 -12.51277,6.39149 -26.96678,17.53512 -37.55352,28.95267 -9.4301,10.17014 -15.84159,19.56549 -22.15114,32.46014 -16.97972,34.70096 -17.98756,74.90214 -2.76518,110.29826 6.86122,15.95417 16.09591,29.41177 29.22752,42.5929 l 8.19266,8.22356 -5.05491,-1.90014 c -26.58784,-9.99436 -59.19418,-2.67491 -78.02301,17.51456 -5.27695,5.65828 -7.72775,9.26913 -10.81194,15.92959 -9.86453,21.30298 -5.44416,45.44856 11.49216,62.77415 8.07057,8.25606 16.60964,13.53132 28.19684,17.41939 l 6.49831,2.1805 -5.78609,0.77047 c -7.29043,0.97079 -15.16525,0.88049 -23.01349,-0.26388 z"
       id="path3017"
       inkscape:connector-curvature="0" /><path
       style="fill:#2f2f2f"
       d="m 308.32242,651.85917 c -25.55444,-3.93256 -46.84555,-18.92242 -57.32702,-40.36069 -4.24723,-8.68706 -6.13039,-15.23809 -6.85732,-23.85489 -2.38925,-28.32124 12.07181,-54.00324 38.35223,-68.11129 18.23476,-9.78892 41.72174,-11.94012 61.99324,-5.67804 2.40402,0.74263 4.49287,1.22829 4.64191,1.07924 0.14903,-0.14906 -1.45087,-2.33118 -3.55534,-4.84917 -2.10446,-2.518 -8.73107,-10.54024 -14.72581,-17.82721 -5.99473,-7.28697 -26.33125,-31.96144 -45.19225,-54.83215 -18.86101,-22.8707 -34.29023,-41.80027 -34.28715,-42.0657 0.003,-0.26542 1.99414,-1.52595 4.4246,-2.80117 22.98592,-12.06034 44.17293,-32.66192 57.02547,-55.44978 15.69631,-27.82994 20.65582,-61.85385 13.63266,-93.52453 -4.07632,-18.38202 -12.55725,-36.65606 -23.91,-51.51941 -2.10071,-2.75031 -4.36594,-5.71563 -5.03385,-6.58961 -0.6679,-0.87397 -0.92565,-1.58905 -0.57276,-1.58905 0.61603,0 117.5204,126.65994 117.87184,127.70814 0.0943,0.28119 -2.1412,1.65205 -4.96771,3.04635 -11.14006,5.49533 -23.98554,14.97662 -34.21328,25.25296 -20.27301,20.3693 -33.00174,45.0418 -37.93582,73.53217 -1.60448,9.26456 -1.60576,32.45718 -0.002,41.73447 3.9142,22.64686 12.53943,42.61754 26.16942,60.59209 2.06284,2.72037 7.51078,8.72244 12.10653,13.33794 7.78157,7.81501 8.15456,8.30274 5.42655,7.09584 -10.01255,-4.42963 -27.40816,-6.30485 -39.28339,-4.23469 -16.34201,2.84883 -27.55663,8.30555 -38.43774,18.70272 -33.6153,32.12024 -19.51573,83.71295 27.02355,98.8837 l 5.65175,1.84235 -3.5768,0.51312 c -6.17234,0.88547 -18.57939,0.86836 -24.4412,-0.0337 z"
       id="path3015"
       inkscape:connector-curvature="0" /><path
       style="fill:#000000"
       d="m 311.96541,652.20857 c -10.34677,-1.14999 -19.54584,-3.91484 -28.81273,-8.6599 -7.93969,-4.06546 -13.58765,-8.31826 -20.09754,-15.13302 -12.1864,-12.7571 -18.06961,-26.41082 -18.7883,-43.60376 -0.6822,-16.32028 2.76746,-28.56478 11.87055,-42.13419 3.80524,-5.67224 13.34326,-14.9588 19.47696,-18.96347 14.82275,-9.67771 29.49441,-13.66665 47.94238,-13.03462 10.0963,0.3459 20.32998,2.19612 24.50389,4.43024 0.79292,0.42441 1.56421,0.64911 1.71397,0.49933 0.14976,-0.14978 -7.82332,-10.08587 -17.71798,-22.0802 -9.89465,-11.99433 -20.54942,-24.91303 -23.67727,-28.70822 -3.12785,-3.79519 -17.23693,-20.91016 -31.35351,-38.03327 -14.11658,-17.12311 -25.65688,-31.30795 -25.64511,-31.52186 0.0118,-0.21392 3.25131,-2.14336 7.19897,-4.28765 29.31878,-15.92532 53.021,-43.77762 63.87142,-75.05478 4.88739,-14.08829 7.03711,-27.31667 7.05474,-43.41175 0.0356,-32.51694 -9.86683,-59.7327 -31.46313,-86.47276 -0.95636,-1.18413 -1.4806,-2.15297 -1.165,-2.15297 0.52256,0 11.6592,11.9801 54.8164,58.96809 6.18594,6.73503 12.77547,13.88507 14.64341,15.88899 1.86794,2.00391 12.27635,13.33184 23.1298,25.17317 10.85345,11.84133 21.05388,22.9057 22.66761,24.58748 l 2.93405,3.05778 -5.84884,3.15964 c -29.79352,16.09492 -52.32883,41.1824 -64.11873,71.38034 -11.37513,29.13553 -11.96361,62.68289 -1.62024,92.36368 2.7056,7.76385 9.57029,21.79152 13.88041,28.36396 5.23465,7.98226 12.32554,16.49818 19.65527,23.60533 l 6.57915,6.37937 -4.6843,-1.59709 c -7.94785,-2.70978 -12.96925,-3.64331 -21.6385,-4.0228 -25.95668,-1.13625 -49.45497,10.04011 -62.67636,29.81043 -6.97389,10.42826 -9.87123,20.93596 -9.25452,33.56314 0.43402,8.8866 1.54547,13.43803 5.18577,21.2359 7.27063,15.57439 21.43349,27.54082 39.97929,33.77915 l 5.29475,1.78102 -3.30766,0.40689 c -6.71642,0.82621 -15.37587,1.01112 -20.52907,0.43838 z"
       id="path3013"
       inkscape:connector-curvature="0" /></g></svg>